<svg width="50" height="48" viewBox="0 0 50 48" fill="none" xmlns="http://www.w3.org/2000/svg">
<path d="M1.53748 16C1.53748 16 10.25 14 16.4 18C16.4 18 17.425 25.5 21.525 25.5V22C21.525 22 22.55 24 24.6 24C26.65 24 27.675 22 27.675 22V25.5C31.775 25.5 32.8 18 32.8 18C38.95 14 47.6625 16 47.6625 16C43.5625 18 43.05 25 43.05 25C34.85 25 34.85 31.5 34.85 31.5C24.6 29.5 24.6 37 24.6 37C24.6 37 24.6 29.5 14.35 31.5C14.35 31.5 14.35 25 6.14998 25C6.14998 25 5.63748 18 1.53748 16Z" fill="#CF4647"/>
</svg>
