<svg width="44" height="44" viewBox="0 0 44 44" fill="none" xmlns="http://www.w3.org/2000/svg">
<path d="M17.4167 5.53955C13.86 5.53955 10.725 7.79491 9.58834 11.1416C7.79622 11.4837 6.19732 12.477 5.10467 13.9272C4.01201 15.3774 3.50428 17.18 3.68088 18.9821C3.85748 20.7841 4.70568 22.4559 6.05944 23.6702C7.4132 24.8844 9.17503 25.5536 11 25.5468V40.0975H31.1667V36.4598H36.6667C37.675 36.4598 38.5 35.6414 38.5 34.641V20.0903C38.5 19.0899 37.675 18.2714 36.6667 18.2714H33V14.6338C33 10.6141 29.7183 7.35839 25.6667 7.35839H22.5867C21.0833 6.17615 19.305 5.53955 17.4167 5.53955ZM17.4167 9.17723C18.865 9.17723 20.2217 9.8502 21.0833 10.9961H25.6667C26.6391 10.9961 27.5718 11.3793 28.2594 12.0615C28.947 12.7437 29.3333 13.669 29.3333 14.6338H22C18.3333 14.6338 17.0867 16.689 15.5833 19.4173C14.08 22.1456 11 21.9091 11 21.9091C8.96501 21.9091 7.33334 20.2903 7.33334 18.2714C7.33334 17.3067 7.71965 16.3814 8.40728 15.6992C9.09492 15.017 10.0275 14.6338 11 14.6338H12.8333V13.7243C12.8333 12.5184 13.3162 11.3618 14.1758 10.509C15.0353 9.6563 16.2011 9.17723 17.4167 9.17723ZM31.1667 21.9091H34.8333V32.8222H31.1667V21.9091Z" fill="#CF4647"/>
</svg>
