<?xml version="1.0" encoding="UTF-8"?>
<svg width="178px" height="200px" viewBox="0 0 178 200" version="1.1" xmlns="http://www.w3.org/2000/svg" xmlns:xlink="http://www.w3.org/1999/xlink">
    <!-- Generator: sketchtool 52.4 (67378) - http://www.bohemiancoding.com/sketch -->
    <title>63E17E21-D142-428D-AD5E-D6797474CC3F@1x</title>
    <desc>Created with sketchtool.</desc>
    <defs>
        <path d="M80.9257504,2.11121643 C85.8018957,-0.703633491 91.8091627,-0.703633491 96.6849921,2.11121643 C113.515324,11.8278041 152.807267,34.5124803 169.637599,44.2290679 C174.513428,47.0439179 177.51722,52.2464455 177.51722,57.8764613 C177.51722,77.3096367 177.51722,122.678673 177.51722,142.111848 C177.51722,147.741864 174.513428,152.944392 169.637599,155.759242 C152.807267,165.476145 113.515324,188.160506 96.6849921,197.877093 C91.8091627,200.692259 85.8018957,200.692259 80.9257504,197.877093 C64.0954186,188.160506 24.8037915,165.476145 7.97345972,155.759242 C3.09731438,152.944392 0.0938388626,147.741864 0.0938388626,142.111848 C0.0938388626,122.678673 0.0938388626,77.3096367 0.0938388626,57.8764613 C0.0938388626,52.2464455 3.09731438,47.0439179 7.97345972,44.2290679 C24.8037915,34.5124803 64.0954186,11.8278041 80.9257504,2.11121643 Z" id="path-1"></path>
    </defs>
    <g id="Landing-Pages" stroke="none" stroke-width="1" fill="none" fill-rule="evenodd">
        <g id="Micropage" transform="translate(-862.000000, -160.000000)">
            <g id="LOGO" transform="translate(862.000000, 160.000000)">
                <g id="Group-9">
                    <mask id="mask-2" fill="white">
                        <use xlink:href="#path-1"></use>
                    </mask>
                    <g id="Clip-2"></g>
                    <path d="M80.9257504,2.11121643 C85.8018957,-0.703633491 91.8091627,-0.703633491 96.6849921,2.11121643 C113.515324,11.8278041 152.807267,34.5124803 169.637599,44.2290679 C174.513428,47.0439179 177.51722,52.2464455 177.51722,57.8764613 C177.51722,77.3096367 177.51722,122.678673 177.51722,142.111848 C177.51722,147.741864 174.513428,152.944392 169.637599,155.759242 C152.807267,165.476145 113.515324,188.160506 96.6849921,197.877093 C91.8091627,200.692259 85.8018957,200.692259 80.9257504,197.877093 C64.0954186,188.160506 24.8037915,165.476145 7.97345972,155.759242 C3.09731438,152.944392 0.0938388626,147.741864 0.0938388626,142.111848 C0.0938388626,122.678673 0.0938388626,77.3096367 0.0938388626,57.8764613 C0.0938388626,52.2464455 3.09731438,47.0439179 7.97345972,44.2290679 C24.8037915,34.5124803 64.0954186,11.8278041 80.9257504,2.11121643 Z" id="Fill-1" fill="#0DA7FE" mask="url(#mask-2)"></path>
                    <polygon id="Fill-3" fill="#1A67FD" mask="url(#mask-2)" points="0.0938388626 151.221169 46.171248 99.9943128 88.8053712 202.426224"></polygon>
                    <polygon id="Fill-4" fill="#0DA7FE" mask="url(#mask-2)" points="46.171248 99.9943128 0.715323855 48.4192733 0.0938388626 151.221169"></polygon>
                    <polygon id="Fill-5" fill="#05BBFF" mask="url(#mask-2)" points="46.171248 99.9943128 88.8053712 -2.43791469 0.715323855 48.4192733"></polygon>
                    <polyline id="Fill-6" fill="#00C9FF" mask="url(#mask-2)" points="88.8053712 -2.43791469 177.51722 151.210111 46.171248 99.9943128"></polyline>
                    <polygon id="Fill-7" fill="#1A86FD" mask="url(#mask-2)" points="88.8053712 202.600316 177.51722 151.221169 46.171248 99.9943128"></polygon>
                    <polygon id="Fill-8" fill="#05BBFF" mask="url(#mask-2)" points="177.51722 151.210111 177.51722 48.7781991 88.8053712 -2.43791469"></polygon>
                </g>
                <polygon id="Fill-10" fill-opacity="0.5" fill="#1A67FD" points="107.55703 91.3507109 118.818009 102.611374 113.22812 108.200632 107.55703 113.872038 75.8537125 145.574092 64.593049 134.313428 96.2960506 102.611374 64.593049 70.9093207 75.8537125 59.6486572"></polygon>
                <polygon id="Fill-11" fill="#D6FFFF" points="118.818009 97.557346 107.55703 86.2966825 64.593049 129.2594 75.8537125 140.520063"></polygon>
                <polygon id="Fill-12" fill="#D6FFFF" points="75.8537125 54.5946288 64.593049 65.8552923 107.55703 108.818009 118.818009 97.557346"></polygon>
            </g>
        </g>
    </g>
</svg>