<svg width="51" height="51" viewBox="0 0 51 51" fill="none" xmlns="http://www.w3.org/2000/svg">
<path d="M42.5 6.375H8.5C6.15612 6.375 4.25 8.28112 4.25 10.625V40.375C4.25 42.7189 6.15612 44.625 8.5 44.625H42.5C44.8439 44.625 46.75 42.7189 46.75 40.375V10.625C46.75 8.28112 44.8439 6.375 42.5 6.375ZM8.5 40.375V14.875H42.5L42.5043 40.375H8.5Z" fill="#393E64"/>
<path d="M19.7477 19.7476L11.8704 27.625L19.7477 35.5024L22.7525 32.4976L17.8799 27.625L22.7525 22.7524L19.7477 19.7476ZM31.2525 19.7476L28.2477 22.7524L33.1204 27.625L28.2477 32.4976L31.2525 35.5024L39.1299 27.625L31.2525 19.7476Z" fill="#393E64"/>
</svg>
