<svg width="81" height="49" viewBox="0 0 81 49" fill="none" xmlns="http://www.w3.org/2000/svg">
<g clip-path="url(#clip0)">
<path d="M21.6597 25.3126C21.6051 25.3958 21.4993 25.6581 21.355 26.0964C21.2074 26.5379 21.0278 27.0882 20.8161 27.7601C20.6044 28.4223 20.3735 29.1677 20.1297 29.99L19.3696 32.511C19.0809 33.3684 18.8564 34.2066 18.5998 35.032L17.9583 37.2651L17.4772 38.9351L17.2527 39.7349C17.1565 40.0005 17.0602 40.2948 16.8999 40.6211C16.7395 40.9411 16.547 41.2514 16.3546 41.5425C16.1301 41.8304 15.9056 42.0768 15.649 42.2687C15.3924 42.4607 15.1358 42.5567 14.8471 42.5567C14.3981 42.5567 14.0773 42.4031 13.8528 42.1088C13.6283 41.8049 13.5321 41.2578 13.5321 40.458V39.7349C13.5321 39.4694 13.6604 38.9671 13.8528 38.2377C14.0453 37.5018 14.2698 36.6764 14.5584 35.755C14.815 34.8272 15.1358 33.8739 15.4244 32.8853L16.2904 30.1979C15.5207 31.0297 14.7188 31.8615 13.8528 32.6613C12.9868 33.4932 12.0887 34.229 11.1907 34.8688C10.2605 35.5087 9.33036 36.0526 8.40021 36.4685C7.47006 36.8844 6.57199 37.0763 5.70599 37.0763C4.71169 37.0763 3.87776 36.8524 3.17213 36.4045C2.4665 35.9566 1.85709 35.4127 1.40805 34.7089C0.959016 34.005 0.6062 33.2052 0.381682 32.3414C0.256592 31.5128 0.128296 30.617 0.128296 29.7532V29.4333C0.128296 29.3373 0.141126 29.2317 0.16037 29.1325C0.237348 27.5329 0.465074 25.9013 0.833927 24.2249C1.21882 22.5357 1.69993 20.8656 2.30934 19.202C2.91875 17.5384 3.62438 15.9068 4.42623 14.3199C5.26016 12.7971 6.12616 11.2934 7.05631 9.88575C7.98646 8.47807 8.98717 7.16637 10.0392 5.98264C11.0976 4.79251 12.1785 3.76875 13.2915 2.91134C14.4013 2.04754 15.5239 1.3757 16.6593 0.895805C17.7819 0.415915 18.9045 0.159973 20.0143 0.159973C21.2972 0.159973 22.5353 0.511893 23.7349 1.20613C24.9216 1.91957 26.0442 3.03931 27.0962 4.60696C27.3336 4.95888 27.4811 5.3108 27.5453 5.66911C27.6094 6.02103 27.6415 6.36336 27.6415 6.67688C27.6415 7.42551 27.4651 8.02058 27.1058 8.44928C26.753 8.89718 26.3361 9.08913 25.8229 9.08913C25.3738 9.08913 24.9569 8.86518 24.572 8.38529C24.1871 7.9054 23.7381 7.23356 23.289 6.36975C22.84 5.56994 22.3589 4.99407 21.8136 4.64215C21.2684 4.29023 20.691 4.13027 20.0495 4.13027C19.0552 4.13027 18.0289 4.54617 16.9063 5.37798C15.7837 6.20979 14.6932 7.26555 13.6026 8.60924C12.5121 9.95293 11.4537 11.4886 10.4594 13.2162C9.46507 14.9438 8.567 16.7034 7.79722 18.527C7.02744 20.3506 6.41803 22.1102 5.969 23.8698C5.51996 25.6294 5.29544 27.197 5.29544 28.6047C5.29544 29.0846 5.32751 29.5645 5.39166 30.0443C5.45581 30.5562 5.58411 30.9721 5.74448 31.388C5.90485 31.8039 6.16144 32.1239 6.48218 32.3798C6.80292 32.6357 7.18781 32.7637 7.63685 32.7637C8.15004 32.7637 8.75944 32.6038 9.40093 32.2518C10.0745 31.8999 10.748 31.452 11.4537 30.8762C12.1593 30.3003 12.897 29.6604 13.6026 28.9566C14.3083 28.2528 15.0139 27.5169 15.6233 26.7811C16.2327 26.0453 16.8101 25.3414 17.2591 24.6696C17.7402 23.9977 18.093 23.4219 18.3496 22.91L20.2067 16.9561C20.444 16.3259 20.752 15.8748 21.1465 15.6124C21.5314 15.3437 21.9259 15.2093 22.3332 15.2093C22.5257 15.2093 22.7277 15.2413 22.9266 15.3053C23.119 15.3693 23.3051 15.4717 23.4622 15.6124C23.6226 15.7404 23.7413 15.9324 23.8343 16.1563C23.9305 16.3803 23.9947 16.6362 23.9947 16.9561C23.9947 17.756 23.9305 18.511 23.8022 19.2084C23.6739 19.9123 23.4815 20.5841 23.257 21.256C23.0645 21.9118 22.8079 22.5804 22.5513 23.2555C22.2947 23.9273 22.0381 24.6312 21.7815 25.367L21.6597 25.3126ZM48.2908 30.2011C47.6718 31.0329 46.9501 31.8455 46.129 32.6325C45.3354 33.4002 44.484 34.106 43.5823 34.7441C42.7099 35.3583 41.8503 35.8542 41.0068 36.2285C40.16 36.6028 39.4031 36.7884 38.7295 36.7884C38.056 36.7884 37.5011 36.5644 37.0777 36.1166C36.6543 35.6687 36.4426 34.9008 36.4426 33.8131C36.4426 33.0453 36.5581 32.1495 36.7826 31.1257C36.417 31.7655 35.9583 32.4374 35.4098 33.0772C34.8646 33.7491 34.2327 34.357 33.5303 34.9008C32.8247 35.4447 32.0356 35.8926 31.1632 36.2125C30.2908 36.5325 29.3414 36.7244 28.3086 36.7244C27.85 36.7244 27.4009 36.6604 26.9711 36.5325C26.5221 36.4045 26.1372 36.2125 25.8165 35.9246C25.4957 35.6367 25.2391 35.2528 25.0146 34.7729C24.8222 34.293 24.7259 33.6851 24.7259 32.9813L24.7901 32.2134C24.8542 31.7336 25.0146 30.9337 25.3354 29.878C25.6561 28.8222 26.1051 27.4465 26.7466 25.7509C27.3881 24.0553 28.2541 22.0398 29.4088 19.6403C29.6974 19.0005 30.0182 18.5526 30.4351 18.2646C30.82 17.9767 31.237 17.8487 31.686 17.8487C31.8785 17.8487 32.0709 17.8807 32.2954 17.9447C32.4879 17.9767 32.6803 18.0727 32.8728 18.2006C33.0652 18.3286 33.1935 18.4886 33.3218 18.6805C33.418 18.8405 33.4822 19.0645 33.4822 19.3204C33.4822 19.4804 33.4501 19.6403 33.418 19.7683C33.3218 20.0562 33.1935 20.4081 32.969 20.856L32.1351 22.4365C31.8143 23.0123 31.4936 23.6522 31.1408 24.3304C30.788 25.0119 30.4672 25.7381 30.1785 26.4484C29.8899 27.1842 29.6333 27.936 29.4088 28.6879C29.1842 29.4557 29.056 30.1915 29.0239 30.8953C29.0239 31.2153 29.088 31.4712 29.2163 31.7272C29.3446 31.9831 29.6012 32.1111 29.922 32.1111C30.82 32.1111 31.7181 31.8231 32.552 31.2153C33.386 30.617 34.1557 29.8716 34.8614 28.9822C35.567 28.0864 36.2085 27.1266 36.7858 26.1028C37.3632 25.0791 37.8122 24.1513 38.1971 23.3067C38.4537 22.7404 38.7103 22.1325 38.9027 21.4831C39.0952 20.8432 39.3197 20.2354 39.5763 19.6915C39.8008 19.1476 40.0895 18.6805 40.4102 18.3158C40.6989 17.9511 41.0838 17.7719 41.5649 17.7719C42.046 17.7719 42.4629 17.9639 42.7516 18.3478C43.0403 18.7317 43.2006 19.1796 43.2006 19.7235C43.2006 20.0114 43.1044 20.4273 42.912 20.9392C42.7195 21.4511 42.495 22.059 42.2063 22.7308L41.2762 24.8967C40.9234 25.6645 40.6347 26.4324 40.346 27.2322C40.0574 28.016 39.8008 28.7998 39.6083 29.5485C39.4159 30.3163 39.3197 31.0201 39.3197 31.66C39.3197 32.2678 39.6404 32.5558 40.2498 32.5558C40.6989 32.5558 41.2441 32.4278 41.8856 32.1079C42.5271 31.8199 43.2006 31.404 43.9063 30.8602C44.6119 30.3163 45.3175 29.6764 46.0232 28.9406C46.7288 28.2048 47.3703 27.4241 47.9155 26.5731L48.1401 29.9644L48.2908 30.2011Z" fill="white" stroke="white" stroke-miterlimit="10"/>
<path d="M48.9451 28.9534C48.7911 29.3373 48.6404 29.7852 48.4961 30.2907C48.3453 30.7962 48.2715 31.2505 48.2715 31.6504C48.2715 31.8999 48.3132 32.0983 48.3998 32.2486C48.4832 32.399 48.6436 32.4726 48.8809 32.4726C49.1792 32.4726 49.5481 32.3702 49.9939 32.1622C50.4365 31.9543 50.9144 31.6824 51.4276 31.3368C51.9408 30.9977 52.4797 30.6074 53.0313 30.1659C53.5894 29.718 54.1443 29.2381 54.6928 28.7902C55.238 28.3103 55.7641 27.8304 56.2644 27.3505C56.7648 26.8707 57.2138 26.4228 57.6115 26.0388C57.7206 25.9109 57.8521 25.8469 58.0092 25.7829C58.1632 25.7189 58.2979 25.6869 58.4102 25.6869C58.6988 25.6869 58.9234 25.7829 59.1158 26.0388C59.3082 26.2628 59.4045 26.5827 59.4045 26.9666C59.4045 27.3186 59.3082 27.7025 59.1158 28.1184C58.9234 28.5343 58.5705 28.9502 58.0894 29.3661C57.1914 30.3259 56.2933 31.2537 55.3631 32.1495C54.465 33.0133 53.5349 33.8131 52.6368 34.4849C51.7387 35.1568 50.8407 35.6686 49.9426 36.0846C49.0445 36.4685 48.1785 36.6604 47.3446 36.6604C46.7673 36.6604 46.2861 36.5644 45.9013 36.3725C45.5164 36.1805 45.2277 35.9246 44.9711 35.6047C44.7466 35.2847 44.5862 34.9008 44.49 34.4849C44.3938 34.037 44.3617 33.5891 44.3617 33.1092C44.3617 32.2774 44.4579 31.4456 44.6824 30.5818C44.907 29.718 45.1315 28.9182 45.4201 28.2144C45.9333 26.9027 46.4144 25.6229 46.9276 24.3432L48.3389 20.824L54.7184 4.7989C54.959 4.15905 55.2958 3.70475 55.7288 3.42322C56.165 3.16728 56.5948 3.03931 57.0342 3.03931C57.4832 3.03931 57.8681 3.16728 58.2338 3.45521C58.5866 3.73035 58.779 4.19104 58.779 4.8213C58.779 5.11883 58.7149 5.43556 58.6026 5.76828C58.4743 6.08821 58.346 6.45293 58.1536 6.83364C57.8008 7.60786 57.3838 8.56124 56.9027 9.69379L55.299 13.4049C54.7537 14.7326 54.1764 16.1243 53.599 17.564L51.867 21.787C51.2897 23.1563 50.7765 24.4424 50.2954 25.6709L49.0445 28.8478L48.9451 28.9534Z" fill="white" stroke="white" stroke-miterlimit="10"/>
<path d="M78.8703 24.4424C79.0724 24.3049 79.2552 24.1961 79.4252 24.1129C79.592 24.0297 79.7556 23.985 79.9063 23.985C80.2174 23.985 80.4516 24.1257 80.6055 24.4009C80.7659 24.676 80.8621 25.0087 80.8621 25.4118C80.8621 25.8437 80.7659 26.2852 80.5735 26.7331C80.381 27.181 80.1244 27.5585 79.7395 27.8529C78.2321 29.187 76.8849 30.4027 75.7303 31.5C74.5435 32.5974 73.453 33.5412 72.3946 34.3314C71.3361 35.1312 70.3097 35.7391 69.3154 36.187C68.3212 36.6349 67.2627 36.8588 66.108 36.8588C65.0496 36.8588 64.2157 36.6349 63.6383 36.155C63.061 35.7071 62.7723 35.0672 62.7723 34.2354V34.0435C62.7723 34.0115 62.8044 33.9155 62.8044 33.8515C62.8685 33.3716 63.0931 32.7957 63.478 32.1239C63.8628 31.484 64.3119 30.8122 64.8571 30.1084C65.4024 29.4045 65.9797 28.7007 66.5891 27.9968C67.1986 27.293 67.7438 26.6211 68.2891 25.9813C68.8023 25.3414 69.2192 24.7656 69.572 24.2217C69.9249 23.7098 70.0852 23.2619 70.0852 22.942C70.0852 22.75 70.0211 22.5901 69.8864 22.4621C69.7356 22.3661 69.5015 22.3021 69.1807 22.3021C68.6034 22.3021 68.0261 22.4621 67.4295 22.75C66.8201 23.038 66.2235 23.4539 65.6333 23.9338C65.056 24.4456 64.4787 24.9895 63.927 25.6294C63.3753 26.2692 62.8686 26.9411 62.3554 27.6129C61.8743 28.3168 61.4252 28.9886 61.0083 29.6924C60.6234 30.3963 60.2705 31.0361 59.9819 31.612L59.6291 32.3798L59.148 33.5316L58.5706 34.8113L58.0254 36.059L57.5763 37.1148C57.448 37.4347 57.3518 37.6266 57.2877 37.7546C57.2235 37.9146 57.1273 38.2025 56.9669 38.6184L56.3896 40.0837L55.716 41.8433L55.0745 43.5709L54.5293 45.0361C54.3689 45.452 54.2727 45.7336 54.2406 45.8839C54.0802 46.2999 53.9199 46.7158 53.7274 47.0997C53.535 47.4836 53.3265 47.8131 53.0795 48.1042C52.8358 48.3922 52.5535 48.6321 52.236 48.8081C51.9152 48.968 51.5624 49.064 51.1775 49.064C50.6643 49.064 50.2474 48.9361 49.9266 48.7057C49.6059 48.4818 49.4135 48.0019 49.4135 47.33C49.4135 47.0101 49.4455 46.6582 49.5418 46.3063C49.6059 45.9543 49.7342 45.628 49.8625 45.2825C49.9587 44.9306 50.1191 44.6106 50.2474 44.2907C50.3757 43.9708 50.504 43.6509 50.6002 43.3437C51.3379 41.6801 52.1237 40.0165 52.9095 38.3337C53.6954 36.6509 54.4491 35.0064 55.1868 33.3748C55.9117 31.7432 56.582 30.1435 57.2075 28.5439C57.8169 26.9763 58.3301 25.4534 58.747 24.0009L59.1961 22.734C59.3885 22.1902 59.613 21.6463 59.8696 21.1344C60.1262 20.6225 60.4149 20.1426 60.7356 19.7587C61.0564 19.3748 61.4092 19.1733 61.762 19.1733C62.3393 19.1733 62.7467 19.3012 63.0001 19.5572C63.2566 19.8387 63.3849 20.197 63.3849 20.7089C63.3849 20.8049 63.3721 20.9648 63.3432 21.1888C63.3112 21.4127 63.2791 21.6367 63.2278 21.8766L63.0899 22.5485C63.0578 22.7724 62.9936 22.9324 62.9616 23.0284C63.4748 22.4653 64.0521 21.9086 64.6551 21.3488C65.2645 20.7953 65.906 20.293 66.5474 19.8451C67.1889 19.3972 67.8625 19.0133 68.536 18.7414C69.2096 18.4534 69.8832 18.3094 70.5567 18.3094C71.0378 18.3094 71.4869 18.3734 71.9551 18.5014C72.4042 18.6358 72.8211 18.8309 73.174 19.0901C73.5492 19.346 73.8411 19.6659 74.0656 20.0499C74.2901 20.4338 74.4024 20.8913 74.4024 21.4063C74.4024 22.0878 74.2228 22.814 73.8892 23.5818C73.5364 24.3625 73.1194 25.1495 72.587 25.9173C72.0738 26.7043 71.5061 27.4658 70.8999 28.2048C70.2905 28.9406 69.7452 29.6125 69.2 30.2203L67.8529 31.788C67.5001 32.2039 67.3076 32.4918 67.3012 32.6518C67.3012 32.8437 67.3653 33.0037 67.4936 33.1317C67.6219 33.2596 67.8465 33.3236 68.1351 33.3236C68.3853 33.3236 68.7381 33.1797 69.1936 32.9077C69.6683 32.6198 70.3162 32.1719 71.1501 31.5128C71.984 30.841 73.0617 29.9772 74.3479 28.8574C75.6308 27.7505 77.2346 26.362 79.1173 24.676L78.8703 24.4424Z" fill="white" stroke="white" stroke-miterlimit="10"/>
</g>
<defs>
<clipPath id="clip0">
<rect width="81" height="49" fill="white"/>
</clipPath>
</defs>
</svg>
