<svg width="28" height="26" viewBox="0 0 28 26" fill="none" xmlns="http://www.w3.org/2000/svg">
<path d="M26.1156 0H1.92903C1.34737 0 0.877441 0.46475 0.877441 1.04V24.96C0.877441 25.5352 1.34737 26 1.92903 26H26.1156C26.6973 26 27.1672 25.5352 27.1672 24.96V1.04C27.1672 0.46475 26.6973 0 26.1156 0ZM22.4351 6.68525L21.0943 7.956C20.976 8.04375 20.9201 8.18675 20.9431 8.3265V17.6768C20.9201 17.8197 20.976 17.9627 21.0943 18.0472L22.4088 19.318V19.6007H15.81V19.331L17.1673 18.0278C17.302 17.8945 17.302 17.8555 17.302 17.6572V10.0912L13.5228 19.5682H13.0135L8.6165 10.0912V16.445C8.57706 16.7115 8.67237 16.9813 8.86297 17.173L10.631 19.2887V19.5715H5.6096V19.2887L7.37759 17.173C7.47074 17.0778 7.54007 16.9624 7.58001 16.836C7.61996 16.7096 7.62942 16.5757 7.60763 16.445V9.1C7.63063 8.89525 7.55176 8.697 7.39402 8.55725L5.82321 6.68525V6.4025H10.7033L14.4693 14.5762L17.7851 6.409H22.4351V6.68525Z" fill="white"/>
</svg>
