<svg width="43" height="43" viewBox="0 0 43 43" fill="none" xmlns="http://www.w3.org/2000/svg">
<path d="M0 24.6057L7.075 17.5867L13.4 16.3466C21.45 5.48311 36.85 0.0513916 42.425 0.0513916C42.425 5.58232 36.95 20.8606 26 28.847L24.75 35.122L17.675 42.141L15.9 33.3858C12.375 33.3858 12.375 33.3858 10.6 31.6248C8.825 29.8639 8.825 29.8638 8.825 26.3667L0 24.6057ZM7.075 31.6248L10.6 35.122L3.95 41.7442H0.4V38.2223L7.075 31.6248ZM3.525 28.1277L6.625 28.5493L0.475 34.6259V31.104L3.525 28.1277ZM13.7 35.5684L14.125 38.6439L11.125 41.6698H7.575L13.7 35.5684ZM25.475 13.147C24.4804 13.147 23.5266 13.539 22.8233 14.2367C22.1201 14.9344 21.725 15.8807 21.725 16.8674C21.725 17.8541 22.1201 18.8004 22.8233 19.4981C23.5266 20.1958 24.4804 20.5878 25.475 20.5878C26.4696 20.5878 27.4234 20.1958 28.1266 19.4981C28.8299 18.8004 29.225 17.8541 29.225 16.8674C29.225 15.8807 28.8299 14.9344 28.1266 14.2367C27.4234 13.539 26.4696 13.147 25.475 13.147Z" fill="#CF4647"/>
</svg>
