<svg width="46" height="46" viewBox="0 0 46 46" fill="none" xmlns="http://www.w3.org/2000/svg">
<path d="M23 21.0833C23.5083 21.0833 23.9959 21.2853 24.3553 21.6447C24.7147 22.0042 24.9167 22.4917 24.9167 23C24.9167 23.5083 24.7147 23.9958 24.3553 24.3553C23.9959 24.7147 23.5083 24.9167 23 24.9167C22.4917 24.9167 22.0042 24.7147 21.6447 24.3553C21.2853 23.9958 21.0833 23.5083 21.0833 23C21.0833 22.4917 21.2853 22.0042 21.6447 21.6447C22.0042 21.2853 22.4917 21.0833 23 21.0833ZM8.08834 8.08833C10.8292 5.3475 16.7708 6.57416 23 10.6567C29.2292 6.57416 35.1708 5.3475 37.9117 8.08833C40.6525 10.8292 39.4258 16.7708 35.3433 23C39.4258 29.2292 40.6525 35.1708 37.9117 37.9117C35.1708 40.6525 29.2292 39.4258 23 35.3433C16.7708 39.4258 10.8292 40.6525 8.08834 37.9117C5.34751 35.1708 6.57418 29.2292 10.6567 23C6.57418 16.7708 5.34751 10.8292 8.08834 8.08833ZM29.785 16.215C30.9542 17.4033 32.0275 18.6108 33.0242 19.8183C35.6692 15.7358 36.6275 12.2283 35.19 10.81C33.7717 9.3725 30.2642 10.3308 26.1817 12.9758C27.3892 13.9725 28.5967 15.0458 29.785 16.215ZM16.215 29.785C15.0458 28.5967 13.9725 27.3892 12.9758 26.1817C10.3308 30.2642 9.37251 33.7717 10.81 35.19C12.2283 36.6275 15.7358 35.6692 19.8183 33.0242C18.6108 32.0275 17.4033 30.9542 16.215 29.785ZM10.81 10.81C9.37251 12.2283 10.3308 15.7358 12.9758 19.8183C13.9725 18.6108 15.0458 17.4033 16.215 16.215C17.4033 15.0458 18.6108 13.9725 19.8183 12.9758C15.7358 10.3308 12.2283 9.3725 10.81 10.81ZM18.9367 27.0633C20.2783 28.405 21.6583 29.6317 23 30.7242C24.3417 29.6317 25.7217 28.405 27.0633 27.0633C28.405 25.7217 29.6317 24.3417 30.7242 23C29.6317 21.6583 28.405 20.2783 27.0633 18.9367C25.7217 17.595 24.3417 16.3683 23 15.2758C21.6583 16.3683 20.2783 17.595 18.9367 18.9367C17.595 20.2783 16.3683 21.6583 15.2758 23C16.3683 24.3417 17.595 25.7217 18.9367 27.0633ZM35.19 35.19C36.6275 33.7717 35.6692 30.2642 33.0242 26.1817C32.0275 27.3892 30.9542 28.5967 29.785 29.785C28.5967 30.9542 27.3892 32.0275 26.1817 33.0242C30.2642 35.6692 33.7717 36.6275 35.19 35.19Z" fill="#393E64"/>
</svg>
