<svg width="38" height="40" viewBox="0 0 38 40" fill="none" xmlns="http://www.w3.org/2000/svg">
<path d="M16.8889 30.823C16.8889 31.4034 17.1113 31.9601 17.5072 32.3705C17.9031 32.7809 18.4401 33.0114 19 33.0114C19.5599 33.0114 20.0969 32.7809 20.4928 32.3705C20.8887 31.9601 21.1111 31.4034 21.1111 30.823C21.1111 30.2426 20.8887 29.686 20.4928 29.2756C20.0969 28.8652 19.5599 28.6346 19 28.6346C18.4401 28.6346 17.9031 28.8652 17.5072 29.2756C17.1113 29.686 16.8889 30.2426 16.8889 30.823ZM16.8889 0.185356V8.93898H21.1111V4.73724C28.2678 5.80956 33.7778 12.1559 33.7778 19.881C33.7778 23.9438 32.2208 27.8402 29.4495 30.7131C26.6781 33.5859 22.9193 35.1998 19 35.1998C15.0807 35.1998 11.3219 33.5859 8.55053 30.7131C5.77916 27.8402 4.22222 23.9438 4.22222 19.881C4.22222 16.2045 5.46778 12.8343 7.55778 10.2083L19 22.0694L21.9767 18.9838L7.62111 4.1026V4.14637C2.99778 7.73536 0 13.4252 0 19.881C0 25.1046 2.00178 30.1143 5.56497 33.8079C9.12816 37.5016 13.9609 39.5767 19 39.5767C24.0391 39.5767 28.8718 37.5016 32.435 33.8079C35.9982 30.1143 38 25.1046 38 19.881C38 14.6574 35.9982 9.64773 32.435 5.95408C28.8718 2.26043 24.0391 0.185356 19 0.185356H16.8889ZM31.6667 19.881C31.6667 19.3006 31.4442 18.744 31.0483 18.3336C30.6524 17.9232 30.1155 17.6926 29.5556 17.6926C28.9957 17.6926 28.4587 17.9232 28.0628 18.3336C27.6669 18.744 27.4444 19.3006 27.4444 19.881C27.4444 20.4614 27.6669 21.018 28.0628 21.4284C28.4587 21.8389 28.9957 22.0694 29.5556 22.0694C30.1155 22.0694 30.6524 21.8389 31.0483 21.4284C31.4442 21.018 31.6667 20.4614 31.6667 19.881ZM6.33333 19.881C6.33333 20.4614 6.55575 21.018 6.95166 21.4284C7.34757 21.8389 7.88454 22.0694 8.44444 22.0694C9.00435 22.0694 9.54132 21.8389 9.93723 21.4284C10.3331 21.018 10.5556 20.4614 10.5556 19.881C10.5556 19.3006 10.3331 18.744 9.93723 18.3336C9.54132 17.9232 9.00435 17.6926 8.44444 17.6926C7.88454 17.6926 7.34757 17.9232 6.95166 18.3336C6.55575 18.744 6.33333 19.3006 6.33333 19.881Z" fill="#393E64"/>
</svg>
