<svg width="27" height="22" viewBox="0 0 27 22" fill="none" xmlns="http://www.w3.org/2000/svg">
<path d="M26.7214 2.61333C25.7546 3.04291 24.7025 3.35208 23.6189 3.4725C24.744 2.78397 25.5865 1.69622 25.9884 0.413327C24.9327 1.06027 23.776 1.51392 22.5699 1.75415C22.0658 1.19903 21.4561 0.756799 20.7788 0.455008C20.1015 0.153216 19.3712 -0.00166557 18.6332 1.35072e-05C15.6476 1.35072e-05 13.2464 2.49291 13.2464 5.55208C13.2464 5.98167 13.2969 6.41125 13.3791 6.82457C8.90845 6.58374 4.92122 4.38374 2.27044 1.0154C1.78744 1.86518 1.53433 2.83276 1.53745 3.81747C1.53745 5.74409 2.48844 7.44291 3.93863 8.44202C3.08401 8.40735 2.24941 8.16539 1.50269 7.73581V7.80415C1.50269 10.5021 3.35413 12.7379 5.82167 13.2521C5.35836 13.376 4.88175 13.4395 4.40307 13.4408C4.05237 13.4408 3.72063 13.405 3.38573 13.3562C4.06817 15.5562 6.05546 17.1541 8.42189 17.2062C6.57045 18.7 4.25142 19.5787 1.73333 19.5787C1.28153 19.5787 0.864485 19.5624 0.431641 19.5104C2.82019 21.0888 5.65421 22 8.70624 22C18.6143 22 24.0359 13.545 24.0359 6.20622C24.0359 5.96539 24.0359 5.72457 24.0201 5.48374C25.069 4.69291 25.9884 3.71333 26.7214 2.61333Z" fill="white"/>
</svg>
