<?xml version="1.0" encoding="UTF-8"?>
<svg xmlns="http://www.w3.org/2000/svg" width="76" height="60" viewBox="0 0 76 59">
  <g fill="#CF4646" fill-rule="evenodd">
    <path d="M2 4v51c0 1.1.9 2 2 2h68c1.1 0 2-.9 2-2V4c0-1.1-.9-2-2-2H4c-1.1 0-2 .9-2 2zM0 4c0-2.2 1.8-4 4-4h68c2.2 0 4 1.8 4 4v51c0 2.2-1.8 4-4 4H4c-2.2 0-4-1.8-4-4V4z"/>
    <path d="M1.14 12H75v-2H1.13"/>
    <circle cx="6" cy="6" r="1"/>
    <circle cx="9" cy="6" r="1"/>
    <circle cx="12" cy="6" r="1"/>
    <path d="M16 6c0-.55.44-1 1-1h46c.55 0 1 .44 1 1 0 .55-.44 1-1 1H17c-.55 0-1-.44-1-1zm51 0c0-.55.44-1 1-1h2c.55 0 1 .44 1 1 0 .55-.44 1-1 1h-2c-.55 0-1-.44-1-1z"/>
  </g>
</svg>
