<svg xmlns="http://www.w3.org/2000/svg" viewBox="0 0 100.14 72"><defs><style>.cls-1{fill:#fff;}</style></defs><title>Decojent Logo White</title><g id="Layer_2" data-name="Layer 2"><g id="Layer_1-2" data-name="Layer 1"><path class="cls-1" d="M10.13,63.27A5.11,5.11,0,0,0,9,61.33,5.6,5.6,0,0,0,7.1,60a6.76,6.76,0,0,0-2.64-.47H0V71.81H4.46A6.59,6.59,0,0,0,7,71.37a5.56,5.56,0,0,0,1.91-1.25,5.39,5.39,0,0,0,1.22-1.94,6.92,6.92,0,0,0,.43-2.53A7.2,7.2,0,0,0,10.13,63.27Zm-2.26,4a4.1,4.1,0,0,1-.7,1.29A3.13,3.13,0,0,1,6,69.4a3.73,3.73,0,0,1-1.57.31H2.38V61.62H4.46A3.75,3.75,0,0,1,6,61.91a3.08,3.08,0,0,1,1.16.83A3.83,3.83,0,0,1,7.87,64a5.55,5.55,0,0,1,0,3.23Z"/><path class="cls-1" d="M16.51,69.71v-3.2h5.17V64.58H16.51v-3h6V59.53H14.12V71.81h8.52v-2.1Z"/><path class="cls-1" d="M34.29,67.94a2.77,2.77,0,0,1-.55.85,2.91,2.91,0,0,1-.76.57,3,3,0,0,1-.85.34,4.56,4.56,0,0,1-.87.1,3,3,0,0,1-1.46-.35,3.76,3.76,0,0,1-1.14-.91,3.87,3.87,0,0,1-.73-1.32,4.63,4.63,0,0,1-.27-1.57,4.74,4.74,0,0,1,.23-1.47,4.06,4.06,0,0,1,.67-1.31,3.48,3.48,0,0,1,1.1-.94,3.25,3.25,0,0,1,1.57-.36,4.32,4.32,0,0,1,.85.09,3.54,3.54,0,0,1,.82.31,2.78,2.78,0,0,1,.75.55,3.56,3.56,0,0,1,.59.88l1.84-1.26a4.85,4.85,0,0,0-1.85-1.94,5.66,5.66,0,0,0-2.94-.75,5.79,5.79,0,0,0-2.55.54,6,6,0,0,0-1.91,1.4,6.26,6.26,0,0,0-1.18,2,6.25,6.25,0,0,0,0,4.53,6.57,6.57,0,0,0,1.23,2,6.4,6.4,0,0,0,1.88,1.44,5.23,5.23,0,0,0,2.4.55,6.2,6.2,0,0,0,1.52-.19,5.46,5.46,0,0,0,1.46-.56,5.25,5.25,0,0,0,1.24-.88,3.62,3.62,0,0,0,.83-1.22Z"/><path class="cls-1" d="M50.27,63.41a6.3,6.3,0,0,0-1.21-2A6.2,6.2,0,0,0,47.19,60a5.48,5.48,0,0,0-2.43-.54,5.66,5.66,0,0,0-2.41.51,6.11,6.11,0,0,0-1.91,1.38,6.49,6.49,0,0,0-1.26,2,6.16,6.16,0,0,0-.47,2.35,6.44,6.44,0,0,0,.44,2.3,6.06,6.06,0,0,0,1.22,2,6.29,6.29,0,0,0,1.89,1.4,5.86,5.86,0,0,0,4.85,0A5.79,5.79,0,0,0,49,70a6.46,6.46,0,0,0,1.25-2,6.33,6.33,0,0,0,.45-2.34A6.17,6.17,0,0,0,50.27,63.41Zm-2.2,3.76a4.17,4.17,0,0,1-.69,1.32,3.5,3.5,0,0,1-1.12.94,3.45,3.45,0,0,1-3,0,3.6,3.6,0,0,1-1.13-.91,3.83,3.83,0,0,1-.69-1.33,4.61,4.61,0,0,1-.25-1.54,5.09,5.09,0,0,1,.23-1.49,4.2,4.2,0,0,1,.69-1.31,3.24,3.24,0,0,1,1.13-.94,3.32,3.32,0,0,1,1.53-.35,3.24,3.24,0,0,1,1.5.34,3.38,3.38,0,0,1,1.12.9,4.19,4.19,0,0,1,.71,1.32,4.9,4.9,0,0,1,.25,1.53A4.81,4.81,0,0,1,48.07,67.17Z"/><path class="cls-1" d="M57.36,59.53v6.25c0,.68,0,1.28-.08,1.8A4.2,4.2,0,0,1,57,68.86a1.6,1.6,0,0,1-.67.77,2.26,2.26,0,0,1-1.16.26,4.34,4.34,0,0,1-1.31-.2,3.38,3.38,0,0,1-.81-.39l-.54,1.94a4.61,4.61,0,0,0,2.66.76,5.49,5.49,0,0,0,2.43-.45A3.37,3.37,0,0,0,59,70.29a5.5,5.5,0,0,0,.61-2,18.1,18.1,0,0,0,.16-2.54V59.53Z"/><path class="cls-1" d="M66.28,69.71v-3.2h5.18V64.58H66.28v-3h6V59.53H63.89V71.81h8.53v-2.1Z"/><path class="cls-1" d="M84.28,59.54v8.05l-6.4-8.06H76V71.81h2.4V63.94l6.31,7.87h1.93V59.54Z"/><path class="cls-1" d="M89.91,59.53v2.09h3.93V71.81h2.37V61.62h3.93V59.53Z"/><path class="cls-1" d="M49.41,0A23.64,23.64,0,1,0,73,23.64,23.63,23.63,0,0,0,49.41,0Zm-.17,21.32a1.35,1.35,0,0,1-.38.95l-5.58,5.58,5.56,5.57h0a1.28,1.28,0,0,1,.4,1v5.28L38.38,28.8a1.46,1.46,0,0,1-.39-.95,1.37,1.37,0,0,1,.4-1L49.24,16ZM55.57,35a1.36,1.36,0,0,1-.4,1l-3.73,3.72v-32l3.73,3.74a1.28,1.28,0,0,1,.4.94Z"/><polygon class="cls-1" points="55.57 12.29 55.57 12.3 55.57 12.3 55.57 12.29"/><polygon class="cls-1" points="55.57 34.99 55.57 34.98 55.57 34.98 55.57 34.99"/></g></g></svg>