<svg id="Layer_1" data-name="Layer 1" xmlns="http://www.w3.org/2000/svg" viewBox="0 0 128 128"><defs><style>.cls-1{fill:#fff;}</style></defs><title>chrome_icon_flat</title><path class="cls-1" d="M396.28,278.87a26.39,26.39,0,0,0-23.07,39.26l.09.15h0a26.38,26.38,0,0,0,45.35,1l1.21-2.13a26.41,26.41,0,0,0-23.58-38.32Z" transform="translate(-332.28 -241.29)"/><path class="cls-1" d="M454.57,278.86H408.16a29,29,0,0,1,14.06,39.34h0l-.14.24c-.38.73-.78,1.45-1.22,2.15l-27.53,48.61c1,0,2,.08,2.94.08a64,64,0,0,0,58.29-90.43Z" transform="translate(-332.28 -241.29)"/><path class="cls-1" d="M396.28,334.27a29,29,0,0,1-25.2-14.7h0l-28.45-49.15A64,64,0,0,0,390.51,369l22.83-40.32A28.82,28.82,0,0,1,396.28,334.27Z" transform="translate(-332.28 -241.29)"/><path class="cls-1" d="M367.3,305.29a29,29,0,0,1,28.82-29h57.22a64,64,0,0,0-109.11-8.22l23.22,40.1A27.68,27.68,0,0,1,367.3,305.29Z" transform="translate(-332.28 -241.29)"/></svg>
