<?xml version="1.0" encoding="UTF-8"?>
<svg xmlns="http://www.w3.org/2000/svg" xmlns:xlink="http://www.w3.org/1999/xlink" width="50pt" height="50pt" viewBox="0 0 50 50" version="1.1">
<g id="surface275103">
<path style=" stroke:none;fill-rule:nonzero;fill:rgb(100%,100%,100%);fill-opacity:1;" d="M 5 4 C 4.449219 4 4 4.449219 4 5 L 4 45 C 4 45.550781 4.449219 46 5 46 L 24 46 C 24.550781 46 25 45.550781 25 45 L 25 5 C 25 4.449219 24.550781 4 24 4 Z M 25 14.5 C 25 20.289062 29.710938 25 35.5 25 C 41.289062 25 46 20.289062 46 14.5 C 46 8.710938 41.289062 4 35.5 4 C 29.710938 4 25 8.710938 25 14.5 Z M 35.5 25 C 29.710938 25 25 29.710938 25 35.5 C 25 41.289062 29.710938 46 35.5 46 C 41.289062 46 46 41.289062 46 35.5 C 46 29.710938 41.289062 25 35.5 25 Z M 6 6 L 23 6 L 23 44 L 6 44 Z M 35.5 6 C 40.207031 6 44 9.792969 44 14.5 C 44 19.207031 40.207031 23 35.5 23 C 30.792969 23 27 19.207031 27 14.5 C 27 9.792969 30.792969 6 35.5 6 Z M 35.5 27 C 40.207031 27 44 30.792969 44 35.5 C 44 40.207031 40.207031 44 35.5 44 C 30.792969 44 27 40.207031 27 35.5 C 27 30.792969 30.792969 27 35.5 27 Z M 35.5 27 "/>
</g>
</svg>
