<svg width="355" height="207" xmlns="http://www.w3.org/2000/svg">
  <style type="text/css">.st0{fill:#FFFFFF;}</style>
  <path id="svg_1" d="m18.100002,206.406924c-6,0 -11.3,-0.7 -16.1,-5.4l6.2,-6.2c3.1,3.1 7.2,3.6 10.1,3.6c3.3,0 6.7,-1.1 6.7,-3.9c0,-1.9 -1,-3.2 -4,-3.5l-6,-0.6c-6.8,-0.7 -11,-3.6 -11,-10.6c0,-7.8 6.9,-12.1 14.6,-12.1c5.9,0 10.8,1 14.5,4.4l-5.8,5.9c-2.2,-2 -5.5,-2.5 -8.8,-2.5c-3.8,0 -5.4,1.7 -5.4,3.6c0,1.4 0.6,3 3.9,3.3l6,0.6c7.5,0.7 11.3,4.7 11.3,11.1c-0.2,8.3 -7.3,12.3 -16.2,12.3z" class="st0"/>
  <path id="svg_2" d="m50.600002,206.006924c-7.7,0 -11,-5.4 -11,-10.8l0,-18.7l-4,0l0,-7.3l4,0l0,-11.2l9.4,0l0,11.2l6.7,0l0,7.2l-6.7,0l0,18.2c0,2.2 1,3.4 3.3,3.4l3.4,0l0,8l-5.1,0l0,0z" class="st0"/>
  <path id="svg_3" d="m59.900002,161.706924l0,-7.7l9.7,0l0,7.7l-9.7,0zm0.2,44.3l0,-37.8l9.4,0l0,37.8l-9.4,0z" class="st0"/>
  <path id="svg_4" d="m90.900002,206.406924c-7.6,0 -16.9,-4.1 -16.9,-19.4s9.4,-19.3 16.9,-19.3c5.2,0 9.2,1.6 12.5,5.1l-6.4,6.4c-2,-2.1 -3.6,-3 -6.1,-3c-2.3,0 -4,0.8 -5.4,2.5c-1.5,1.8 -2.1,4.4 -2.1,8.4s0.7,6.6 2.1,8.4c1.4,1.7 3.1,2.5 5.4,2.5c2.5,0 4.1,-0.9 6.1,-3l6.4,6.3c-3.4,3.5 -7.3,5.1 -12.5,5.1z" class="st0"/>
  <path id="svg_5" d="m129.400002,206.006924l-9.3,-15.8l-4,4.5l0,11.3l-9.4,0l0,-51.7l9.4,0l0,29.3l12.6,-15.5l11.4,0l-13.5,15.3l14.5,22.6l-11.7,0l0,0z" class="st0"/>
  <path id="svg_6" d="m149.000002,190.006924c0,4.9 3,8.4 8.3,8.4c4.1,0 6.2,-1.2 8.6,-3.6l5.7,5.6c-3.8,3.8 -7.6,6 -14.4,6c-8.9,0 -17.5,-4.1 -17.5,-19.4c0,-12.3 6.7,-19.3 16.5,-19.3c10.5,0 16.5,7.7 16.5,18.1l0,4.2l-23.7,0l0,0zm13.5,-10.5c-1,-2.3 -3.1,-3.9 -6.3,-3.9s-5.3,1.7 -6.3,3.9c-0.6,1.4 -0.8,2.4 -0.9,4.1l14.4,0c-0.1,-1.7 -0.3,-2.7 -0.9,-4.1z" class="st0"/>
  <path id="svg_7" d="m197.700002,178.506924c-1.5,-1.5 -2.7,-2.3 -5,-2.3c-2.9,0 -6.1,2.2 -6.1,7l0,22.8l-9.4,0l0,-37.8l9.2,0l0,3.6c1.8,-2.2 5.5,-4.1 9.5,-4.1c3.7,0 6.3,0.9 8.9,3.6l-7.1,7.2z" class="st0"/>
  <path id="svg_8" d="m247.300002,167.706924c-4.7,0 -8.1,1.5 -11.3,4.8c-2.4,-3.3 -5.8,-4.8 -10,-4.8c-3.5,0 -7,1.4 -9.4,3.9l0,-3.4l-9.2,0l0,37.8l9.4,0l0,-22.9c0,-5.2 3.3,-6.9 6.3,-6.9s6.2,1.7 6.2,6.9l0,22.9l9.4,0l0,-23.1c0,-4.9 3.4,-6.7 6.3,-6.7c3,0 6.2,1.7 6.2,6.9l0,22.9l9.4,0l0,-24.2c0,-4.1 -1.1,-7.7 -4.1,-10.8c-2,-2 -5.4,-3.3 -9.2,-3.3z" class="st0"/>
  <path id="svg_9" d="m288.300002,191.006924c0,5.2 -3.3,6.9 -6.3,6.9s-6.2,-1.7 -6.2,-6.9l0,-22.8l-9.4,0l0,24.2c0,4.1 0.8,7.7 3.8,10.7c2.1,2.1 5.2,3.3 8.9,3.3c3.5,0 7,-1.3 9.4,-3.9l0,3.5l9.2,0l0,-37.8l-9.4,0l0,22.8z" class="st0"/>
  <path id="svg_10" d="m313.200002,194.606924l0,-40.3l-9.4,0l0,40.9c0,5.4 3.3,10.8 11,10.8l5.4,0l0,-8l-3.6,0c-2.4,0 -3.4,-1.1 -3.4,-3.4z" class="st0"/>
  <path id="svg_11" d="m354.900002,185.806924c0,-10.4 -6,-18.1 -16.5,-18.1c-9.8,0 -16.5,7 -16.5,19.3c0,15.3 8.6,19.4 17.5,19.4c6.8,0 10.5,-2.1 14.4,-6l-5.7,-5.6c-2.4,2.4 -4.4,3.6 -8.6,3.6c-5.3,0 -8.3,-3.6 -8.3,-8.4l23.7,0l0,-4.2zm-23.7,-2.2c0.1,-1.7 0.3,-2.7 0.9,-4.1c1,-2.3 3.1,-3.9 6.3,-3.9c3.2,0 5.3,1.7 6.3,3.9c0.6,1.4 0.8,2.4 0.9,4.1l-14.4,0z" class="st0"/>
  <path id="svg_12" d="m195.900002,143.206924c-1.3,0.6 -3.1,0.5 -5,0.6c-1.6,0 -3.9,0.1 -4.8,-0.8c-0.5,-0.5 -0.7,-1.4 -0.7,-2c0,-0.7 0.1,-1.5 0.3,-2.3c0.2,-0.9 0.4,-2.1 0,-2.5c-0.4,-0.6 -1.9,-0.3 -2.6,-0.8c-0.8,-0.5 -1,-1.5 -1.3,-2.8c-0.1,-0.4 -0.3,-0.7 -0.4,-1c-0.2,-1.9 0.4,-4.4 0.8,-6.3c0.5,-2 1,-3.9 1.4,-5.8c0.5,-2.8 0.7,-6 0.5,-9c-0.1,-1.5 -0.3,-2.7 -0.1,-4c0.2,-1.2 0.7,-2.2 1,-3.4c0.1,-0.4 0,-0.8 0.1,-1.2c0,-0.4 0.3,-0.7 0.3,-1c0,-0.8 -0.2,-1.8 -0.3,-2.8c-0.2,-2.7 0,-6.4 0.2,-8.7c0.1,-0.8 0.4,-1.7 -0.1,-2.1c-2.8,0 -5.3,0.5 -7.9,0.8c-6.9,0.9 -15.6,1 -22.3,-0.3c-0.6,-0.1 -1.3,-0.1 -1.9,-0.3c-4.7,-1.1 -9.1,-3.1 -12.5,-5.8c-0.5,-0.4 -1.1,-0.9 -1.7,-1.3c-0.6,-0.4 -1.2,-1.1 -1.7,-1.3c-2.7,-1.3 -6.3,0.2 -7.4,1.9c-0.4,0.7 -0.8,1.6 -1.2,2.4c-0.4,0.8 -0.8,1.6 -1.1,2.4c-1.8,4.1 -3.8,8 -5.6,12.1c-1,2.4 -2.2,5 -3,7.6c-1.6,5.6 -0.1,13.2 1.2,18.5c0.1,0.5 0.4,1 0.6,1.5c0.4,1.3 1.3,3 2.3,3.9c0.5,0.5 1.4,0.7 2,1.2c0.7,0.6 1.3,1.9 1.9,3c0.2,0.4 0.6,1 0.9,1.5c0.7,1.2 0.9,2.3 -0.4,3c-1,0.5 -2.5,0.7 -3.9,0.8c-0.6,0.2 -0.4,1 -0.8,1.4c-0.2,0.2 -1.2,0.6 -1.7,0.8c-1.8,0.5 -5,0.5 -6.4,0c-0.7,-0.3 -1.5,-0.8 -1.7,-1.4c-0.4,-1.1 0.5,-2.6 -0.3,-3.4c-0.4,-0.4 -1.1,-0.3 -1.8,-0.6c-1,-0.4 -1.9,-1.3 -2.3,-2.5c-1.1,-2.8 -0.4,-7.1 -0.5,-10.5c0,-1 -0.2,-2.1 -0.2,-3.2c-0.1,-2 -0.5,-4 -0.8,-6c-0.1,-1 -0.4,-1.8 -0.6,-2.7c-0.3,-1.4 -0.6,-3 -1,-4.4c-0.5,-1.6 -0.5,-3.1 0.1,-4.5c0.1,-0.4 0.5,-0.7 0.8,-1.2c0.3,-0.8 0.4,-1.7 0.4,-2.4c-0.2,-0.4 -1.2,-0.1 -1.4,-0.5c-0.6,-4.4 -1.2,-8.7 -1.6,-13.3c-0.1,-1.5 -0.1,-3.1 -0.3,-4.7c-0.3,-3.1 0,-6.3 -0.3,-9.3c-0.1,-1.5 -0.5,-2.9 -0.7,-4.3c-0.5,-4 -1.6,-9.1 -0.8,-13.3c0.5,-2.7 1.5,-4.8 3,-6.8c1.1,-1.4 2.2,-2.7 3.5,-3.9c1.2,-1.2 2.6,-2.3 4.1,-3.4c0.9,-0.7 1.9,-1.5 3,-1.9c2.3,-1.1 5.3,-2 8.5,-2.1s6.8,-0.2 9.9,0.4c3,0.5 6,1.1 9,1.7c2.9,0.6 5.7,1.4 8.5,2.1c0.4,0.1 0.7,0.3 1,0.4c0.9,0.2 1.9,0.3 2.8,0.6c2.6,0.7 5.9,1 9,1c3.4,0 6.4,-0.1 9.2,-0.8c0.4,-0.1 0.7,-0.3 1.2,-0.5c0.4,-0.2 1,-0.1 1.4,-0.3c0.3,-0.1 0.6,-0.4 0.9,-0.5c1.6,-0.8 3,-1.5 4.4,-2.5c1.1,-0.8 2.1,-1.5 3.6,-2.1c0.7,-0.3 1.3,-0.6 2,-0.8c1.4,-0.5 3,-0.9 4.1,-1.6c1.7,-1.1 3,-2.7 4.4,-3.9c1.5,-1.3 3,-2.5 4.6,-3.8c3.2,-2.5 6.4,-4.8 9.4,-7.2c1.5,-1.2 3.2,-2.4 5,-3.4c3.5,-2 7,-4.3 12,-4.7c2,-0.1 4,-0.2 6,0.1c0.5,0.1 1.3,0.4 1.8,0.3c0.5,-0.1 0.9,-0.9 1.3,-1.6c0.7,-1.3 1.3,-2.2 1.9,-3.8c0.4,-1 0.2,-2 1.2,-1.9c1,0 0.9,2.7 0.9,3.7c0.1,1.2 -0.1,2.8 0.1,3.6c0.1,0.6 0.9,1.4 1.7,1.4c0.6,0 0.9,-0.4 1.4,-0.8c0.5,-0.3 1,-0.5 1.4,-0.8c0.8,-0.6 1.8,-1.6 2.6,-2.5c0.7,-0.7 1.8,-2.3 2.9,-2.2c2,0.2 0,3.1 -0.4,4.1c-1,2.3 -2,3.9 -3.2,6.1c-0.5,0.9 -1.6,2.1 -1.6,3c0,0.6 0.5,1.1 0.8,1.7c0.1,0.3 0.2,0.7 0.3,1c0.7,1.6 1.2,3.8 1.7,5.6c0.5,1.5 0.8,3.2 1.4,4.7c0.5,1.5 1.3,2.9 1.9,4.3c0.2,0.4 0.2,0.9 0.3,1.2c1.3,3.2 2.5,6.9 4,10c0.6,1.3 1.5,2.8 1.5,4.7c0,2 -1.1,3 -2,4.5c-0.5,0.8 -1.2,2 -1.9,2.3c-0.5,0.2 -1.2,0 -1.7,0.1c-0.8,0.1 -1.3,0.6 -2,0.7c-1.9,0.2 -3.6,-1.2 -4.1,-2.6c-0.2,-0.5 -0.1,-1.1 -0.2,-1.7c-0.4,-2.2 -1.5,-3.3 -3.1,-4.8c-1,-0.9 -1.8,-1.6 -3,-2.3c-1.8,-0.9 -3.7,-1.5 -5.6,-2.5c-0.7,-0.4 -1.5,-0.7 -2.1,-0.6c-1,0.2 -2,1.8 -2.8,2.8c-4.9,6.4 -9.2,13 -13.9,19.3c-3.1,4.2 -6.5,8.4 -9,13.2c-0.6,1.2 -1,2.6 -1.5,4s-0.7,2.9 -1.2,4.3c-1.8,5.2 -2.4,11.6 -4.1,17.1c-0.2,0.6 -0.2,1.2 -0.4,1.9c-0.8,2.8 -1.5,6 -2.4,9c-0.7,2.2 -0.9,5.2 -1,8.1c-0.1,2.7 -0.2,6.6 0.8,8.3c0.5,0.9 2.4,1.3 3.1,2.2c0.5,0.7 0.8,2 1.3,2.8c0.3,0.6 1.3,1.9 1.2,2.8c-0.1,0.7 -0.7,1.2 -1.2,1.4c-0.6,0.3 -1.4,0.1 -2,0.4c-0.9,0.5 -0.6,1.3 -1.3,1.7z" class="st0"/>
</svg>
