<?xml version="1.0" encoding="iso-8859-1"?>
<!-- Generator: Adobe Illustrator 17.1.0, SVG Export Plug-In . SVG Version: 6.00 Build 0)  -->
<!DOCTYPE svg PUBLIC "-//W3C//DTD SVG 1.1//EN" "http://www.w3.org/Graphics/SVG/1.1/DTD/svg11.dtd">
<svg xmlns="http://www.w3.org/2000/svg" xmlns:xlink="http://www.w3.org/1999/xlink" version="1.1" id="Capa_1" x="0px" y="0px" viewBox="0 0 512.269 512.269" style="enable-background:new 0 0 512.269 512.269;" xml:space="preserve" width="512px" height="512px">
<g>
	<path d="M224.122,300.269c0,17.652,14.361,32.013,32.013,32.013c17.652,0,32.013-14.361,32.013-32.013c0-4.418-3.582-8-8-8   s-8,3.582-8,8c0,8.83-7.183,16.013-16.013,16.013s-16.013-7.183-16.013-16.013c0-1.651,0.252-3.245,0.718-4.744   c0.276-0.42,0.528-0.86,0.727-1.341c0.192-0.467,0.332-0.941,0.432-1.418c2.695-5.057,8.018-8.509,14.137-8.509   c4.418,0,8-3.582,8-8s-3.582-8-8-8c-10.425,0-19.699,5.011-25.548,12.748l-121.92-50.265c-4.086-1.685-8.762,0.262-10.445,4.347   c-1.684,4.085,0.262,8.761,4.347,10.445l121.875,50.247C224.236,297.246,224.122,298.744,224.122,300.269z" fill="#CF4646"/>
	<path d="M437.249,119.155c-48.377-48.377-112.698-75.02-181.114-75.02c-68.417,0-132.737,26.643-181.115,75.02S0,231.853,0,300.269   c0,50.1,14.519,98.672,41.986,140.467c1.537,2.338,4.089,3.607,6.693,3.607c1.508,0,3.032-0.426,4.386-1.315   c3.692-2.427,4.718-7.387,2.292-11.079c-6.833-10.396-12.801-21.244-17.897-32.443l22.069-9.142   c4.082-1.691,6.021-6.371,4.33-10.453c-1.691-4.083-6.372-6.019-10.453-4.33l-22.084,9.148   c-9.168-24.361-14.316-50.139-15.185-76.461h23.88c4.418,0,8-3.582,8-8s-3.582-8-8-8H16.146   c0.862-26.508,6.002-52.27,15.091-76.496l22.169,9.183c1.001,0.415,2.038,0.611,3.059,0.611c3.139,0,6.118-1.86,7.394-4.94   c1.691-4.082-0.248-8.762-4.33-10.453l-22.169-9.183c10.703-23.558,25.285-45.409,43.42-64.763l16.88,16.88   c1.562,1.562,3.609,2.343,5.657,2.343s4.095-0.781,5.657-2.343c3.125-3.124,3.125-8.189,0-11.313l-16.88-16.88   c19.354-18.134,41.205-32.716,64.763-43.42l9.183,22.169c1.276,3.081,4.255,4.94,7.394,4.94c1.021,0,2.058-0.196,3.059-0.611   c4.082-1.691,6.021-6.371,4.33-10.453l-9.183-22.169c24.226-9.089,49.988-14.229,76.496-15.091v23.871c0,4.418,3.582,8,8,8   s8-3.582,8-8V60.281c26.508,0.862,52.27,6.002,76.496,15.091l-9.183,22.169c-1.691,4.082,0.248,8.762,4.33,10.453   c1.001,0.415,2.038,0.611,3.059,0.611c3.139,0,6.118-1.86,7.394-4.94l9.183-22.169c23.558,10.703,45.409,25.285,64.762,43.42   l-16.88,16.88c-3.125,3.124-3.125,8.189,0,11.313c1.562,1.562,3.609,2.343,5.657,2.343s4.095-0.781,5.657-2.343l16.88-16.88   c18.134,19.354,32.716,41.205,43.42,64.763l-22.169,9.183c-4.082,1.691-6.021,6.371-4.33,10.453c1.276,3.081,4.255,4.94,7.394,4.94   c1.021,0,2.058-0.196,3.059-0.611l22.169-9.183c9.089,24.226,14.229,49.988,15.091,76.496h-23.871c-4.418,0-8,3.582-8,8   s3.582,8,8,8h23.879c-0.868,26.322-6.017,52.1-15.185,76.461l-22.084-9.148c-4.081-1.688-8.761,0.248-10.453,4.33   c-1.691,4.082,0.248,8.762,4.33,10.453l22.069,9.142c-5.096,11.2-11.064,22.047-17.897,32.443c-2.427,3.692-1.4,8.652,2.292,11.079   c3.691,2.425,8.652,1.4,11.079-2.292c27.468-41.794,41.986-90.367,41.986-140.467C512.269,231.853,485.626,167.532,437.249,119.155   z" fill="#CF4646"/>
	<path d="M328,388.135H184c-13.233,0-24,10.767-24,24v32c0,13.233,10.767,24,24,24h144c13.233,0,24-10.767,24-24v-32   C352,398.901,341.233,388.135,328,388.135z M336,444.135c0,4.411-3.589,8-8,8H184c-4.411,0-8-3.589-8-8v-32c0-4.411,3.589-8,8-8   h144c4.411,0,8,3.589,8,8V444.135z" fill="#CF4646"/>
	<path d="M264,420.135h-16c-4.418,0-8,3.582-8,8s3.582,8,8,8h16c4.418,0,8-3.582,8-8S268.418,420.135,264,420.135z" fill="#CF4646"/>
	<path d="M224,420.135h-16c-4.418,0-8,3.582-8,8s3.582,8,8,8h16c4.418,0,8-3.582,8-8S228.418,420.135,224,420.135z" fill="#CF4646"/>
	<path d="M304,420.135h-16c-4.418,0-8,3.582-8,8s3.582,8,8,8h16c4.418,0,8-3.582,8-8S308.418,420.135,304,420.135z" fill="#CF4646"/>
</g>
<g>
</g>
<g>
</g>
<g>
</g>
<g>
</g>
<g>
</g>
<g>
</g>
<g>
</g>
<g>
</g>
<g>
</g>
<g>
</g>
<g>
</g>
<g>
</g>
<g>
</g>
<g>
</g>
<g>
</g>
</svg>
