<?xml version="1.0" encoding="iso-8859-1"?>
<!-- Generator: Adobe Illustrator 19.0.0, SVG Export Plug-In . SVG Version: 6.00 Build 0)  -->
<svg xmlns="http://www.w3.org/2000/svg" xmlns:xlink="http://www.w3.org/1999/xlink" version="1.1" id="Capa_1" x="0px" y="0px" viewBox="0 0 463 463" style="enable-background:new 0 0 463 463;" xml:space="preserve" width="512px" height="512px">
<g>
	<path d="M439.5,92h-8.622c-0.015-15.242-0.026-24.509-0.026-24.509c-0.005-4.139-3.361-7.491-7.5-7.491   c-110.843,0-176.933,25.047-191.78,31.337C216.711,85.05,150.522,60,39.5,60c-4.139,0-7.495,3.353-7.5,7.491   c0,0-0.01,9.267-0.026,24.509H23.5C10.542,92,0,102.542,0,115.5v264C0,392.458,10.542,403,23.5,403h416   c12.958,0,23.5-10.542,23.5-23.5v-264C463,102.542,452.458,92,439.5,92z M415.932,356.038   c-93.47,0.951-153.82,19.652-176.932,28.346V104.526c16.004-6.445,77.69-28.42,176.86-29.486   C415.96,166.015,416.079,321.073,415.932,356.038z M224,104.469v279.864c-23.245-8.716-83.637-27.35-177.08-28.296   c-0.134-31.924-0.047-163.943,0.046-255.91c0.017-0.207,0.032-0.415,0.032-0.627c0-0.203-0.015-0.403-0.03-0.602   c0.008-8.321,0.017-16.313,0.025-23.858C146.035,76.1,207.749,97.951,224,104.469z M15,379.5v-264c0-4.687,3.813-8.5,8.5-8.5h8.459   c-0.027,28.295-0.062,68.323-0.084,108.371c-0.021,36.981-0.031,73.975-0.016,101.742c0.008,13.89,0.022,25.473,0.044,33.593   c0.012,4.073,0.025,7.277,0.041,9.469c0.034,4.673,0.046,6.421,2.249,8.625c1.407,1.408,3.316,2.2,5.307,2.2   c64.093,0,113.209,8.753,145.26,17H23.5C18.813,388,15,384.187,15,379.5z M448,379.5c0,4.687-3.813,8.5-8.5,8.5H278.319   c32.002-8.247,81.041-17,145.033-17c1.991,0,3.9-0.792,5.307-2.2c2.202-2.204,2.215-3.952,2.249-8.625   c0.016-2.191,0.029-5.396,0.041-9.469c0.023-8.12,0.037-19.703,0.045-33.593c0.016-27.768,0.005-64.76-0.016-101.742   c-0.023-40.048-0.057-80.076-0.085-108.371h8.608c4.687,0,8.5,3.813,8.5,8.5V379.5z" fill="#CF4646"/>
	<path d="M126.489,127.95c25.47,3.461,49.323,8.413,70.896,14.719c0.703,0.205,1.411,0.303,2.107,0.303   c3.246,0,6.239-2.125,7.195-5.397c1.162-3.977-1.119-8.142-5.095-9.304c-22.287-6.514-46.876-11.622-73.084-15.184   c-4.107-0.564-7.884,2.317-8.441,6.422S122.385,127.393,126.489,127.95z" fill="#CF4646"/>
	<path d="M71.158,122.992c7.941,0.364,15.924,0.876,23.727,1.521c0.21,0.018,0.419,0.025,0.626,0.025   c3.862,0,7.143-2.965,7.466-6.883c0.341-4.128-2.729-7.751-6.857-8.092c-7.984-0.659-16.151-1.183-24.274-1.556   c-4.123-0.162-7.646,3.011-7.836,7.148C63.82,119.294,67.021,122.803,71.158,122.992z" fill="#CF4646"/>
	<path d="M201.594,192.271c-15.129-4.423-31.535-8.241-48.763-11.349c-4.079-0.735-7.978,1.974-8.712,6.05   c-0.735,4.076,1.973,7.977,6.049,8.712c16.709,3.014,32.595,6.709,47.217,10.983c0.703,0.206,1.411,0.304,2.108,0.304   c3.246,0,6.238-2.125,7.195-5.397C207.85,197.599,205.569,193.434,201.594,192.271z" fill="#CF4646"/>
	<path d="M71.158,186.992c16.106,0.739,32.065,2.065,47.434,3.939c0.308,0.038,0.615,0.057,0.917,0.057   c3.737,0,6.972-2.789,7.436-6.593c0.501-4.111-2.425-7.852-6.537-8.353c-15.741-1.921-32.08-3.278-48.563-4.035   c-4.123-0.163-7.646,3.011-7.836,7.148C63.82,183.294,67.02,186.802,71.158,186.992z" fill="#CF4646"/>
	<path d="M197.385,174.669c0.702,0.205,1.411,0.303,2.107,0.303c3.246,0,6.239-2.124,7.195-5.397   c1.162-3.976-1.119-8.141-5.095-9.304c-5.233-1.529-10.708-3.01-16.271-4.4c-4.014-1-8.09,1.439-9.095,5.458   c-1.004,4.019,1.439,8.091,5.458,9.095C187.058,171.766,192.34,173.194,197.385,174.669z" fill="#CF4646"/>
	<path d="M71.158,154.992c27.421,1.258,54.004,4.183,79.011,8.692c0.45,0.081,0.898,0.12,1.34,0.12c3.559,0,6.718-2.544,7.372-6.17   c0.735-4.076-1.973-7.977-6.05-8.712c-25.656-4.627-52.904-7.627-80.985-8.915c-4.123-0.172-7.646,3.011-7.836,7.148   C63.82,151.294,67.021,154.803,71.158,154.992z" fill="#CF4646"/>
	<path d="M201.594,224.271c-24.638-7.201-51.955-12.662-81.191-16.229c-4.109-0.505-7.852,2.424-8.353,6.536   c-0.501,4.111,2.425,7.852,6.537,8.353c28.429,3.469,54.941,8.764,78.799,15.738c0.703,0.205,1.411,0.303,2.108,0.303   c3.246,0,6.239-2.125,7.195-5.397C207.85,229.599,205.569,225.434,201.594,224.271z" fill="#CF4646"/>
	<path d="M71.158,218.992c5.299,0.243,10.619,0.552,15.812,0.915c0.179,0.013,0.356,0.019,0.532,0.019   c3.903,0,7.197-3.022,7.474-6.976c0.29-4.132-2.825-7.717-6.957-8.006c-5.313-0.372-10.754-0.688-16.172-0.937   c-4.151-0.174-7.646,3.011-7.836,7.148S67.02,218.802,71.158,218.992z" fill="#CF4646"/>
	<path d="M201.594,288.271c-15.129-4.423-31.535-8.241-48.763-11.349c-4.079-0.734-7.978,1.974-8.712,6.05   c-0.735,4.076,1.973,7.977,6.049,8.712c16.709,3.014,32.595,6.709,47.217,10.983c0.703,0.206,1.411,0.304,2.108,0.304   c3.246,0,6.238-2.125,7.195-5.397C207.85,293.599,205.569,289.434,201.594,288.271z" fill="#CF4646"/>
	<path d="M71.158,282.992c16.106,0.739,32.065,2.065,47.434,3.939c0.308,0.038,0.615,0.057,0.917,0.057   c3.737,0,6.972-2.789,7.436-6.593c0.501-4.111-2.425-7.852-6.537-8.353c-15.741-1.921-32.08-3.278-48.563-4.035   c-4.123-0.155-7.646,3.011-7.836,7.148C63.82,279.294,67.02,282.802,71.158,282.992z" fill="#CF4646"/>
	<path d="M201.593,320.271c-24.64-7.201-51.954-12.661-81.184-16.228c-4.113-0.509-7.851,2.425-8.353,6.536   c-0.501,4.111,2.425,7.852,6.537,8.353c28.423,3.469,54.933,8.763,78.792,15.737c0.703,0.205,1.411,0.303,2.107,0.303   c3.246,0,6.239-2.125,7.195-5.397C207.85,325.598,205.569,321.433,201.593,320.271z" fill="#CF4646"/>
	<path d="M71.158,314.992c5.275,0.242,10.599,0.551,15.823,0.916c0.178,0.013,0.355,0.019,0.532,0.019   c3.903,0,7.197-3.022,7.474-6.977c0.29-4.132-2.826-7.716-6.958-8.005c-5.343-0.374-10.788-0.689-16.182-0.938   c-4.124-0.147-7.646,3.011-7.836,7.148C63.82,311.294,67.02,314.802,71.158,314.992z" fill="#CF4646"/>
	<path d="M197.385,270.669c0.702,0.205,1.411,0.303,2.107,0.303c3.246,0,6.239-2.124,7.195-5.397   c1.162-3.976-1.119-8.141-5.095-9.304c-5.233-1.529-10.708-3.01-16.271-4.4c-4.014-1.003-8.09,1.439-9.095,5.458   c-1.004,4.019,1.439,8.091,5.458,9.095C187.058,267.766,192.34,269.194,197.385,270.669z" fill="#CF4646"/>
	<path d="M71.158,250.992c27.421,1.258,54.004,4.183,79.011,8.692c0.45,0.081,0.898,0.12,1.34,0.12c3.559,0,6.718-2.544,7.372-6.17   c0.735-4.076-1.973-7.977-6.05-8.712c-25.656-4.627-52.904-7.627-80.985-8.915c-4.123-0.164-7.646,3.011-7.836,7.148   C63.82,247.294,67.021,250.803,71.158,250.992z" fill="#CF4646"/>
	<path d="M263.497,142.972c0.696,0,1.405-0.098,2.107-0.303c21.573-6.306,45.426-11.258,70.896-14.719   c4.104-0.558,6.979-4.337,6.422-8.441c-0.558-4.104-4.334-6.979-8.441-6.422c-26.208,3.562-50.797,8.67-73.084,15.184   c-3.976,1.162-6.257,5.327-5.095,9.304C257.258,140.848,260.25,142.972,263.497,142.972z" fill="#CF4646"/>
	<path d="M367.479,124.538c0.207,0,0.416-0.008,0.626-0.025c7.802-0.645,15.785-1.156,23.727-1.521   c4.138-0.189,7.338-3.698,7.148-7.836c-0.19-4.138-3.695-7.322-7.836-7.148c-8.124,0.373-16.291,0.896-24.275,1.556   c-4.128,0.341-7.198,3.964-6.857,8.092C360.336,121.574,363.616,124.538,367.479,124.538z" fill="#CF4646"/>
	<path d="M263.497,206.972c0.697,0,1.405-0.098,2.108-0.303c14.623-4.275,30.509-7.971,47.217-10.984   c4.076-0.735,6.785-4.636,6.049-8.712c-0.735-4.077-4.636-6.783-8.712-6.05c-17.227,3.107-33.633,6.926-48.763,11.348   c-3.976,1.163-6.256,5.328-5.094,9.304C257.258,204.848,260.25,206.972,263.497,206.972z" fill="#CF4646"/>
	<path d="M391.144,172.008c-16.483,0.757-32.822,2.114-48.563,4.035c-4.112,0.501-7.038,4.241-6.537,8.353   c0.464,3.804,3.698,6.593,7.436,6.593c0.303,0,0.609-0.019,0.917-0.057c15.368-1.874,31.327-3.2,47.434-3.939   c4.138-0.19,7.338-3.698,7.148-7.836C398.79,175.018,395.267,171.827,391.144,172.008z" fill="#CF4646"/>
	<path d="M263.497,174.972c0.697,0,1.405-0.098,2.107-0.303c5.042-1.475,10.324-2.902,15.7-4.246   c4.019-1.005,6.462-5.076,5.458-9.095c-1.004-4.019-5.08-6.464-9.095-5.458c-5.566,1.392-11.041,2.872-16.271,4.4   c-3.976,1.163-6.257,5.328-5.095,9.304C257.258,172.848,260.25,174.972,263.497,174.972z" fill="#CF4646"/>
	<path d="M391.144,140.008c-28.081,1.288-55.329,4.288-80.986,8.915c-4.077,0.735-6.785,4.636-6.05,8.712   c0.654,3.627,3.813,6.17,7.372,6.17c0.442,0,0.89-0.039,1.34-0.12c25.007-4.51,51.59-7.435,79.011-8.692   c4.138-0.189,7.338-3.698,7.148-7.836C398.79,143.019,395.285,139.822,391.144,140.008z" fill="#CF4646"/>
	<path d="M263.497,238.972c0.697,0,1.405-0.098,2.108-0.303c23.858-6.975,50.37-12.27,78.799-15.738   c4.112-0.501,7.038-4.241,6.537-8.353c-0.501-4.112-4.243-7.044-8.353-6.536c-29.236,3.566-56.553,9.027-81.191,16.229   c-3.976,1.163-6.256,5.328-5.094,9.304C257.258,236.848,260.25,238.972,263.497,238.972z" fill="#CF4646"/>
	<path d="M391.144,204.008c-5.417,0.249-10.858,0.563-16.173,0.937c-4.132,0.289-7.247,3.874-6.957,8.006   c0.277,3.953,3.57,6.976,7.474,6.976c0.176,0,0.354-0.006,0.532-0.019c5.195-0.364,10.515-0.672,15.813-0.915   c4.138-0.19,7.338-3.698,7.148-7.836C398.79,207.018,395.269,203.822,391.144,204.008z" fill="#CF4646"/>
	<path d="M256.301,297.574c0.957,3.273,3.949,5.397,7.195,5.397c0.697,0,1.405-0.098,2.108-0.303   c14.623-4.275,30.509-7.971,47.217-10.984c4.076-0.735,6.785-4.636,6.049-8.712c-0.735-4.077-4.636-6.782-8.712-6.05   c-17.227,3.107-33.633,6.926-48.763,11.348C257.42,289.434,255.139,293.599,256.301,297.574z" fill="#CF4646"/>
	<path d="M391.144,268.008c-16.483,0.757-32.822,2.114-48.563,4.035c-4.112,0.501-7.038,4.241-6.537,8.353   c0.464,3.804,3.698,6.593,7.436,6.593c0.303,0,0.609-0.019,0.917-0.057c15.368-1.874,31.327-3.2,47.434-3.939   c4.138-0.19,7.338-3.698,7.148-7.836C398.79,271.019,395.267,267.842,391.144,268.008z" fill="#CF4646"/>
	<path d="M342.58,304.043c-29.23,3.566-56.544,9.026-81.184,16.228c-3.976,1.162-6.257,5.327-5.095,9.304   c0.957,3.273,3.949,5.397,7.195,5.397c0.697,0,1.405-0.098,2.107-0.303c23.86-6.975,50.369-12.269,78.792-15.737   c4.112-0.501,7.038-4.241,6.537-8.353C350.431,306.467,346.688,303.532,342.58,304.043z" fill="#CF4646"/>
	<path d="M391.144,300.008c-5.394,0.248-10.838,0.563-16.183,0.938c-4.132,0.289-7.247,3.873-6.958,8.005   c0.277,3.954,3.57,6.977,7.474,6.977c0.176,0,0.354-0.006,0.532-0.019c5.226-0.365,10.549-0.674,15.823-0.916   c4.138-0.19,7.338-3.698,7.148-7.836C398.79,303.019,395.267,299.847,391.144,300.008z" fill="#CF4646"/>
	<path d="M263.497,270.972c0.697,0,1.405-0.098,2.107-0.303c5.042-1.475,10.324-2.902,15.7-4.246   c4.019-1.005,6.462-5.076,5.458-9.095c-1.004-4.019-5.08-6.461-9.095-5.458c-5.566,1.392-11.041,2.872-16.271,4.4   c-3.976,1.163-6.257,5.328-5.095,9.304C257.258,268.848,260.25,270.972,263.497,270.972z" fill="#CF4646"/>
	<path d="M391.144,236.008c-28.081,1.288-55.329,4.288-80.986,8.915c-4.077,0.735-6.785,4.636-6.05,8.712   c0.654,3.627,3.813,6.17,7.372,6.17c0.442,0,0.89-0.039,1.34-0.12c25.007-4.51,51.59-7.435,79.011-8.692   c4.138-0.189,7.338-3.698,7.148-7.836C398.79,239.019,395.285,235.837,391.144,236.008z" fill="#CF4646"/>
</g>
<g>
</g>
<g>
</g>
<g>
</g>
<g>
</g>
<g>
</g>
<g>
</g>
<g>
</g>
<g>
</g>
<g>
</g>
<g>
</g>
<g>
</g>
<g>
</g>
<g>
</g>
<g>
</g>
<g>
</g>
</svg>
