<?xml version="1.0" encoding="UTF-8"?>
<svg xmlns="http://www.w3.org/2000/svg" width="65" height="65" viewBox="0 0 83 83">
  <g fill="#CF4646" fill-rule="evenodd">
    <path d="M41.5 57C64.4 57 83 50.34 83 41.5S64.4 26 41.5 26 0 32.66 0 41.5 18.6 57 41.5 57zm0-2C19.66 55 2 48.68 2 41.5S19.66 28 41.5 28 81 34.32 81 41.5 63.34 55 41.5 55z"/>
    <path d="M57 41.5C57 18.6 50.34 0 41.5 0S26 18.6 26 41.5 32.66 83 41.5 83 57 64.4 57 41.5zm-2 0C55 63.34 48.68 81 41.5 81S28 63.34 28 41.5 34.32 2 41.5 2 55 19.66 55 41.5z"/>
    <path d="M52.46 52.46c16.2-16.2 24.64-34.05 18.38-40.3-6.25-6.26-24.1 2.2-40.3 18.38-16.2 16.2-24.64 34.05-18.38 40.3 6.25 6.26 24.1-2.2 40.3-18.38zm-1.4-1.4C35.6 66.48 18.63 74.5 13.56 69.42c-5.08-5.07 2.94-22.03 18.4-37.48C47.4 16.5 64.36 8.5 69.4 13.57c5.08 5.07-2.94 22.03-18.38 37.48z"/>
    <path d="M52.46 30.54C36.26 14.34 18.4 5.9 12.16 12.16c-6.26 6.25 2.2 24.1 18.38 40.3 16.2 16.2 34.05 24.64 40.3 18.38 6.26-6.25-2.2-24.1-18.38-40.3zm-1.4 1.4C66.48 47.4 74.5 64.37 69.42 69.44c-5.07 5.08-22.03-2.94-37.48-18.4C16.5 35.6 8.5 18.64 13.57 13.6c5.07-5.1 22.03 2.9 37.48 18.35z"/>
    <path d="M41.5 52C47.3 52 52 47.3 52 41.5S47.3 31 41.5 31 31 35.7 31 41.5 35.7 52 41.5 52zm0-2c-4.7 0-8.5-3.8-8.5-8.5s3.8-8.5 8.5-8.5 8.5 3.8 8.5 8.5-3.8 8.5-8.5 8.5z"/>
    <path d="M47.5 41c0-3.04-2.46-5.5-5.5-5.5-.55 0-1 .45-1 1s.45 1 1 1c1.93 0 3.5 1.57 3.5 3.5 0 .55.45 1 1 1s1-.45 1-1z"/>
  </g>
</svg>
