<?xml version="1.0" encoding="UTF-8"?>
<svg width="81px" height="62px" viewBox="0 0 81 62" version="1.1" xmlns="http://www.w3.org/2000/svg" xmlns:xlink="http://www.w3.org/1999/xlink">
    <!-- Generator: Sketch 41.2 (35397) - http://www.bohemiancoding.com/sketch -->
    <title>book</title>
    <desc>Created with Sketch.</desc>
    <defs></defs>
    <g stroke="none" stroke-width="1" fill="none" fill-rule="evenodd">
        <g id="icons" transform="translate(-599.000000, -330.000000)" fill="#CF4646">
            <g id="book" transform="translate(599.000000, 330.000000)">
                <g id="half">
                    <path d="M7.0423282,54.1501794 C7.21658196,54.1522025 7.39752646,54.1546072 7.58494969,54.1574275 C9.05041788,54.1794795 10.6347712,54.2233771 12.3063688,54.2942068 C16.8773233,54.4878894 21.4130623,54.8507013 25.6642931,55.4248883 C28.5012189,55.808054 31.1405181,56.2876932 33.5779485,56.8422956 C35.6183593,57.3065619 37.4252083,57.8014687 38.9936383,58.3019864 L38.9998266,8.39797469 C38.7732404,8.31766573 38.5342124,8.23405736 38.2834806,8.14758377 C36.6999654,7.60145336 34.9825731,7.05494412 33.1953713,6.54532153 C30.6970935,5.83293487 28.2693838,5.25245253 25.9968741,4.85044072 C25.8928697,4.83211305 25.8928697,4.83211305 25.7889297,4.81408304 C23.6930477,4.45197714 20.926298,4.1051907 17.6599044,3.77922371 C14.86681,3.50048923 11.8698093,3.25247135 8.87219354,3.03845308 C8.21552819,2.99156969 7.58826496,2.94845187 6.99657894,2.9091922 L7.0423282,54.1501794 Z M4.99467657,0.779353984 C4.99467657,0.779353984 18.7308234,1.56502274 26.1294256,2.84328053 C33.5280278,4.12153832 41,7 41,7 L40.9932861,61.1421509 C40.9932861,61.1421509 35.5779646,58.7820253 25.3965963,57.4068919 C15.2152281,56.0317586 5.04410724,56.1436637 5.04410724,56.1436637 L4.99467657,0.779353984 Z" id="Rectangle-7"></path>
                    <path d="M21.5448575,11.7435705 C22.8217917,11.8917079 23.9308431,12.0449617 24.8410852,12.2022244 C24.9084897,12.2139167 24.9084897,12.2139167 24.9759273,12.2258006 C26.4477248,12.4861647 28.0180688,12.8616449 29.6333158,13.3222344 C30.7878227,13.6514433 31.897011,14.0044096 32.9198942,14.3571866 C33.277294,14.4804483 33.5980277,14.5947482 33.8770162,14.6970926 C34.0428202,14.7579163 34.1568122,14.8008259 34.2139281,14.8228289 C34.7292936,15.0213655 35.3080257,14.7645249 35.5065623,14.2491593 C35.7050989,13.7337938 35.4482583,13.1550617 34.9328927,12.9565251 C34.8659681,12.9307434 34.7419422,12.8840568 34.5658139,12.8194457 C34.2749152,12.7127322 33.9419734,12.5940817 33.5719724,12.466474 C32.5165675,12.1024808 31.373323,11.7386771 30.1817565,11.3989006 C28.5049498,10.9207573 26.8697329,10.5297655 25.3243222,10.2563791 C25.2529638,10.2438043 25.2529638,10.2438043 25.1815811,10.2314218 C24.2302001,10.0670516 23.086206,9.90896922 21.7753322,9.75689449 C21.2267268,9.69325066 20.7304007,10.0863897 20.6667569,10.6349951 C20.6031131,11.1836006 20.9962521,11.6799266 21.5448575,11.7435705 Z" id="Rectangle-7-Copy"></path>
                    <path d="M31.0001164,19.7290941 C31.8402005,19.9895021 32.6252309,20.2512842 33.3328828,20.5013421 C33.7553729,20.6506345 34.056446,20.7621614 34.2139281,20.8228289 C34.7292936,21.0213655 35.3080257,20.7645249 35.5065623,20.2491593 C35.7050989,19.7337938 35.4482583,19.1550617 34.9328927,18.9565251 C34.8874594,18.9390226 34.8032271,18.9071755 34.6829301,18.8626137 C34.4846843,18.7891773 34.255875,18.7063 33.9992303,18.6156112 C33.268001,18.3572219 32.4584496,18.0872628 31.5922764,17.8187678 C31.0647543,17.6552473 30.5045537,17.9503289 30.3410332,18.4778509 C30.1775127,19.005373 30.4725943,19.5655736 31.0001164,19.7290941 Z" id="Rectangle-7-Copy-2"></path>
                    <path d="M24.8410852,24.2022244 C24.9084897,24.2139167 24.9084897,24.2139167 24.9759273,24.2258006 C26.4477248,24.4861647 28.0180688,24.8616449 29.6333158,25.3222344 C30.7878227,25.6514433 31.897011,26.0044096 32.9198942,26.3571866 C33.277294,26.4804483 33.5980277,26.5947482 33.8770162,26.6970926 C34.0428202,26.7579163 34.1568122,26.8008259 34.2139281,26.8228289 C34.7292936,27.0213655 35.3080257,26.7645249 35.5065623,26.2491593 C35.7050989,25.7337938 35.4482583,25.1550617 34.9328927,24.9565251 C34.8659681,24.9307434 34.7419422,24.8840568 34.5658139,24.8194457 C34.2749152,24.7127322 33.9419734,24.5940817 33.5719724,24.466474 C32.5165675,24.1024808 31.373323,23.7386771 30.1817565,23.3989006 C28.5049498,22.9207573 26.8697329,22.5297655 25.3243222,22.2563791 C25.2529638,22.2438043 25.2529638,22.2438043 25.1815811,22.2314218 C24.637359,22.1373965 24.1199573,22.5023531 24.0259319,23.0465752 C23.9319066,23.5907972 24.2968631,24.108199 24.8410852,24.2022244 Z" id="Rectangle-7-Copy-3"></path>
                    <path d="M19.7692674,29.5516587 C21.8005566,29.7568714 23.5240455,29.9746792 24.8410852,30.2022244 C24.9084897,30.2139167 24.9084897,30.2139167 24.9759273,30.2258006 C26.4477248,30.4861647 28.0180688,30.8616449 29.6333158,31.3222344 C30.7878227,31.6514433 31.897011,32.0044096 32.9198942,32.3571866 C33.277294,32.4804483 33.5980277,32.5947482 33.8770162,32.6970926 C34.0428202,32.7579163 34.1568122,32.8008259 34.2139281,32.8228289 C34.7292936,33.0213655 35.3080257,32.7645249 35.5065623,32.2491593 C35.7050989,31.7337938 35.4482583,31.1550617 34.9328927,30.9565251 C34.8659681,30.9307434 34.7419422,30.8840568 34.5658139,30.8194457 C34.2749152,30.7127322 33.9419734,30.5940817 33.5719724,30.466474 C32.5165675,30.1024808 31.373323,29.7386771 30.1817565,29.3989006 C28.5049498,28.9207573 26.8697329,28.5297655 25.3243222,28.2563791 C25.2529638,28.2438043 25.2529638,28.2438043 25.1815811,28.2314218 C23.810104,27.9944715 22.0442746,27.7713129 19.9702959,27.5617875 C19.4208081,27.506275 18.9303585,27.9067211 18.874846,28.4562089 C18.8193335,29.0056966 19.2197796,29.4961462 19.7692674,29.5516587 Z" id="Rectangle-7-Copy-4"></path>
                    <path d="M30.8227559,37.6743961 C31.7050197,37.945092 32.5324131,38.2193576 33.2804942,38.4828595 C33.727231,38.6402168 34.0464645,38.7583162 34.2139281,38.8228289 C34.7292936,39.0213655 35.3080257,38.7645249 35.5065623,38.2491593 C35.7050989,37.7337938 35.4482583,37.1550617 34.9328927,36.9565251 C34.8847632,36.937984 34.7955214,36.9042629 34.6681593,36.8571458 C34.4581959,36.7794706 34.2161322,36.6919817 33.9449533,36.5964624 C33.1721849,36.3242647 32.3190898,36.0414795 31.4094032,35.7623697 C30.8814117,35.6003715 30.3220645,35.8970677 30.1600663,36.4250593 C29.9980681,36.9530508 30.2947643,37.5123979 30.8227559,37.6743961 Z" id="Rectangle-7-Copy-5"></path>
                    <path d="M25.6934352,42.3602708 C26.9576443,42.6100431 28.2819146,42.9368808 29.6333158,43.3222344 C30.7878227,43.6514433 31.897011,44.0044096 32.9198942,44.3571866 C33.277294,44.4804483 33.5980277,44.5947482 33.8770162,44.6970926 C34.0428202,44.7579163 34.1568122,44.8008259 34.2139281,44.8228289 C34.7292936,45.0213655 35.3080257,44.7645249 35.5065623,44.2491593 C35.7050989,43.7337938 35.4482583,43.1550617 34.9328927,42.9565251 C34.8659681,42.9307434 34.7419422,42.8840568 34.5658139,42.8194457 C34.2749152,42.7127322 33.9419734,42.5940817 33.5719724,42.466474 C32.5165675,42.1024808 31.373323,41.7386771 30.1817565,41.3989006 C28.7803257,40.9992811 27.403466,40.659464 26.0810857,40.3981986 C25.5392745,40.2911519 25.0132711,40.6435982 24.9062244,41.1854094 C24.7991776,41.7272207 25.1516239,42.253224 25.6934352,42.3602708 Z" id="Rectangle-7-Copy-6"></path>
                    <path d="M19.6587656,47.5405383 C21.7374219,47.7489166 23.4997252,47.9704773 24.8410852,48.2022244 C24.9084897,48.2139167 24.9084897,48.2139167 24.9759273,48.2258006 C26.4477248,48.4861647 28.0180688,48.8616449 29.6333158,49.3222344 C30.7878227,49.6514433 31.897011,50.0044096 32.9198942,50.3571866 C33.277294,50.4804483 33.5980277,50.5947482 33.8770162,50.6970926 C34.0428202,50.7579163 34.1568122,50.8008259 34.2139281,50.8228289 C34.7292936,51.0213655 35.3080257,50.7645249 35.5065623,50.2491593 C35.7050989,49.7337938 35.4482583,49.1550617 34.9328927,48.9565251 C34.8659681,48.9307434 34.7419422,48.8840568 34.5658139,48.8194457 C34.2749152,48.7127322 33.9419734,48.5940817 33.5719724,48.466474 C32.5165675,48.1024808 31.373323,47.7386771 30.1817565,47.3989006 C28.5049498,46.9207573 26.8697329,46.5297655 25.3243222,46.2563791 C25.2529638,46.2438043 25.2529638,46.2438043 25.1815811,46.2314218 C23.7850522,45.9901433 21.9800749,45.7632175 19.858259,45.5505126 C19.3087285,45.4954241 18.818588,45.8962484 18.7634994,46.4457788 C18.7084109,46.9953093 19.1092352,47.4854498 19.6587656,47.5405383 Z" id="Rectangle-7-Copy-7"></path>
                    <path d="M11.3641623,10.8880452 C11.4409911,10.8924396 11.5884816,10.901197 11.799002,10.9142047 C12.1506356,10.9359317 12.5500591,10.9616853 12.9896339,10.9913521 C14.2458667,11.0761349 15.5712994,11.1752211 16.904654,11.2876775 C17.4549848,11.334093 17.9387433,10.9255888 17.9851588,10.3752579 C18.0315742,9.82492709 17.6230701,9.34116863 17.0727392,9.29475318 C15.7274017,9.18128607 14.3910426,9.08138313 13.1243071,8.99589147 C12.680843,8.96596219 12.2776547,8.93996588 11.9223442,8.91801169 C11.708698,8.90481077 11.5581705,8.89587311 11.47837,8.89130875 C10.9269865,8.85977117 10.4544355,9.2811896 10.4228979,9.83257315 C10.3913603,10.3839567 10.8127788,10.8565077 11.3641623,10.8880452 Z" id="Rectangle-7-Copy-14"></path>
                    <path d="M11.3641623,16.8880452 C11.4914522,16.8953259 11.7317786,16.9097543 12.0689593,16.9310919 C12.631815,16.9667108 13.2592154,17.0087638 13.9349576,17.0570092 C15.8649651,17.1948043 17.7946652,17.3544973 19.5936654,17.534027 C21.7002338,17.7442502 23.4854398,17.9680093 24.8410852,18.2022244 C25.4071039,18.3000155 25.9910488,18.4157671 26.5902848,18.5480623 C27.129583,18.6671248 27.6632898,18.3264565 27.7823524,17.7871583 C27.9014149,17.2478601 27.5607466,16.7141532 27.0214484,16.5950907 C26.3930414,16.4563553 25.7790031,16.3346385 25.1815811,16.2314218 C23.7703402,15.9876015 21.9422694,15.7584698 19.7922672,15.5439121 C17.9723986,15.3622999 16.0247392,15.2011206 14.0773874,15.0620872 C13.3960537,15.0134426 12.7633123,14.9710316 12.1952715,14.9350846 C11.8539143,14.9134827 11.6095708,14.8988131 11.47837,14.8913087 C10.9269865,14.8597712 10.4544355,15.2811896 10.4228979,15.8325732 C10.3913603,16.3839567 10.8127788,16.8565077 11.3641623,16.8880452 Z" id="Rectangle-7-Copy-13"></path>
                    <path d="M11.3641623,22.8880452 C11.4914522,22.8953259 11.7317786,22.9097543 12.0689593,22.9310919 C12.631815,22.9667108 13.2592154,23.0087638 13.9349576,23.0570092 C15.8649651,23.1948043 17.7946652,23.3544973 19.5936654,23.534027 C20.0844099,23.5830005 20.5594971,23.6329068 21.0172663,23.6837143 C21.5661805,23.744638 22.0605517,23.3490435 22.1214754,22.8001294 C22.182399,22.2512152 21.7868046,21.756844 21.2378904,21.6959203 C20.7725479,21.6442722 20.290147,21.5935976 19.7922672,21.5439121 C17.9723986,21.3622999 16.0247392,21.2011206 14.0773874,21.0620872 C13.3960537,21.0134426 12.7633123,20.9710316 12.1952715,20.9350846 C11.8539143,20.9134827 11.6095708,20.8988131 11.47837,20.8913087 C10.9269865,20.8597712 10.4544355,21.2811896 10.4228979,21.8325732 C10.3913603,22.3839567 10.8127788,22.8565077 11.3641623,22.8880452 Z" id="Rectangle-7-Copy-12"></path>
                    <path d="M11.3641623,28.8880452 C11.4225043,28.8913812 11.5370254,28.8981488 11.7008735,28.9081714 C11.9746493,28.9249183 12.2880502,28.944803 12.6359291,28.9677492 C13.6303361,29.0333406 14.7010423,29.1102698 15.8067881,29.1979145 C16.3573461,29.2415533 16.8390378,28.8306141 16.8826766,28.2800561 C16.9263154,27.7294982 16.5153763,27.2478065 15.9648183,27.2041676 C14.8497248,27.115782 13.7703356,27.038229 12.7675638,26.9720858 C12.4164301,26.9489249 12.0998625,26.9288393 11.8229855,26.9119027 C11.6564419,26.9017152 11.5404302,26.8948595 11.47837,26.8913087 C10.9269865,26.8597712 10.4544355,27.2811896 10.4228979,27.8325732 C10.3913603,28.3839567 10.8127788,28.8565077 11.3641623,28.8880452 Z" id="Rectangle-7-Copy-11"></path>
                    <path d="M11.3641623,34.8880452 C11.4914522,34.8953259 11.7317786,34.9097543 12.0689593,34.9310919 C12.631815,34.9667108 13.2592154,35.0087638 13.9349576,35.0570092 C15.8649651,35.1948043 17.7946652,35.3544973 19.5936654,35.534027 C21.7002338,35.7442502 23.4854398,35.9680093 24.8410852,36.2022244 C25.6507655,36.342113 26.4958339,36.5184946 27.3682981,36.7270211 C27.9054534,36.8554059 28.4449802,36.5240319 28.573365,35.9868766 C28.7017497,35.4497213 28.3703758,34.9101945 27.8332205,34.7818098 C26.921265,34.5638445 26.0350785,34.3788807 25.1815811,34.2314218 C23.7703402,33.9876015 21.9422694,33.7584698 19.7922672,33.5439121 C17.9723986,33.3622999 16.0247392,33.2011206 14.0773874,33.0620872 C13.3960537,33.0134426 12.7633123,32.9710316 12.1952715,32.9350846 C11.8539143,32.9134827 11.6095708,32.8988131 11.47837,32.8913087 C10.9269865,32.8597712 10.4544355,33.2811896 10.4228979,33.8325732 C10.3913603,34.3839567 10.8127788,34.8565077 11.3641623,34.8880452 Z" id="Rectangle-7-Copy-10"></path>
                    <path d="M11.3641623,40.8880452 C11.4914522,40.8953259 11.7317786,40.9097543 12.0689593,40.9310919 C12.631815,40.9667108 13.2592154,41.0087638 13.9349576,41.0570092 C15.8649651,41.1948043 17.7946652,41.3544973 19.5936654,41.534027 C20.2657377,41.6010959 20.907958,41.6698631 21.5161745,41.7402471 C22.064798,41.8037348 22.5610122,41.4104546 22.6245,40.8618311 C22.6879878,40.3132076 22.2947075,39.8169934 21.746084,39.7535056 C21.1269649,39.68186 20.4743829,39.6119833 19.7922672,39.5439121 C17.9723986,39.3622999 16.0247392,39.2011206 14.0773874,39.0620872 C13.3960537,39.0134426 12.7633123,38.9710316 12.1952715,38.9350846 C11.8539143,38.9134827 11.6095708,38.8988131 11.47837,38.8913087 C10.9269865,38.8597712 10.4544355,39.2811896 10.4228979,39.8325732 C10.3913603,40.3839567 10.8127788,40.8565077 11.3641623,40.8880452 Z" id="Rectangle-7-Copy-9"></path>
                    <path d="M11.3641623,46.8880452 C11.4230104,46.8914101 11.5384902,46.8982354 11.7036768,46.9083429 C11.9796856,46.9252315 12.2955697,46.9452834 12.6461159,46.9684213 C13.6481402,47.0345604 14.7264089,47.1121235 15.8391315,47.2004804 C16.3896832,47.2441975 16.8714334,46.8333268 16.9151505,46.2827751 C16.9588676,45.7322233 16.5479969,45.2504732 15.9974452,45.2067561 C14.8753028,45.1176512 13.7882886,45.0394589 12.7778401,44.9727639 C12.4240208,44.9494099 12.1049525,44.9291559 11.8258256,44.9120765 C11.6579307,44.9018032 11.5409526,44.8948894 11.47837,44.8913087 C10.9269865,44.8597712 10.4544355,45.2811896 10.4228979,45.8325732 C10.3913603,46.3839567 10.8127788,46.8565077 11.3641623,46.8880452 Z" id="Rectangle-7-Copy-8"></path>
                    <path d="M40.1974386,59.1907167 L2.06221396,59.1735486 C2.06445769,59.1735496 2.25242287,8.56382051 2.25242287,8.56382051 C2.25246808,8.55169161 5.52059509,8.54744218 5.52059509,8.54744218 L5.52059509,6.54744218 L2.26438564,6.54744218 C1.15077242,6.54744218 0.256572247,7.44686795 0.25243676,8.55636587 L0.0638054094,59.1637221 C0.0596815565,60.2700986 0.95398479,61.1730499 2.06131357,61.1735484 L41.0507202,61.1911011 L39.7499094,59.1905153 L40.1974386,59.1907167 Z" id="Rectangle-8"></path>
                </g>
                <g id="half-copy" transform="translate(60.000000, 31.000000) scale(-1, 1) translate(-60.000000, -31.000000) translate(39.000000, 0.000000)">
                    <path d="M7.0423282,54.1501794 C7.21658196,54.1522025 7.39752646,54.1546072 7.58494969,54.1574275 C9.05041788,54.1794795 10.6347712,54.2233771 12.3063688,54.2942068 C16.8773233,54.4878894 21.4130623,54.8507013 25.6642931,55.4248883 C28.5012189,55.808054 31.1405181,56.2876932 33.5779485,56.8422956 C35.6183593,57.3065619 37.4252083,57.8014687 38.9936383,58.3019864 L38.9998266,8.39797469 C38.7732404,8.31766573 38.5342124,8.23405736 38.2834806,8.14758377 C36.6999654,7.60145336 34.9825731,7.05494412 33.1953713,6.54532153 C30.6970935,5.83293487 28.2693838,5.25245253 25.9968741,4.85044072 C25.8928697,4.83211305 25.8928697,4.83211305 25.7889297,4.81408304 C23.6930477,4.45197714 20.926298,4.1051907 17.6599044,3.77922371 C14.86681,3.50048923 11.8698093,3.25247135 8.87219354,3.03845308 C8.21552819,2.99156969 7.58826496,2.94845187 6.99657894,2.9091922 L7.0423282,54.1501794 Z M4.99467657,0.779353984 C4.99467657,0.779353984 18.7308234,1.56502274 26.1294256,2.84328053 C33.5280278,4.12153832 41,7 41,7 L40.9932861,61.1421509 C40.9932861,61.1421509 35.5779646,58.7820253 25.3965963,57.4068919 C15.2152281,56.0317586 5.04410724,56.1436637 5.04410724,56.1436637 L4.99467657,0.779353984 Z" id="Rectangle-7"></path>
                    <path d="M21.5448575,11.7435705 C22.8217917,11.8917079 23.9308431,12.0449617 24.8410852,12.2022244 C24.9084897,12.2139167 24.9084897,12.2139167 24.9759273,12.2258006 C26.4477248,12.4861647 28.0180688,12.8616449 29.6333158,13.3222344 C30.7878227,13.6514433 31.897011,14.0044096 32.9198942,14.3571866 C33.277294,14.4804483 33.5980277,14.5947482 33.8770162,14.6970926 C34.0428202,14.7579163 34.1568122,14.8008259 34.2139281,14.8228289 C34.7292936,15.0213655 35.3080257,14.7645249 35.5065623,14.2491593 C35.7050989,13.7337938 35.4482583,13.1550617 34.9328927,12.9565251 C34.8659681,12.9307434 34.7419422,12.8840568 34.5658139,12.8194457 C34.2749152,12.7127322 33.9419734,12.5940817 33.5719724,12.466474 C32.5165675,12.1024808 31.373323,11.7386771 30.1817565,11.3989006 C28.5049498,10.9207573 26.8697329,10.5297655 25.3243222,10.2563791 C25.2529638,10.2438043 25.2529638,10.2438043 25.1815811,10.2314218 C24.2302001,10.0670516 23.086206,9.90896922 21.7753322,9.75689449 C21.2267268,9.69325066 20.7304007,10.0863897 20.6667569,10.6349951 C20.6031131,11.1836006 20.9962521,11.6799266 21.5448575,11.7435705 Z" id="Rectangle-7-Copy"></path>
                    <path d="M31.0001164,19.7290941 C31.8402005,19.9895021 32.6252309,20.2512842 33.3328828,20.5013421 C33.7553729,20.6506345 34.056446,20.7621614 34.2139281,20.8228289 C34.7292936,21.0213655 35.3080257,20.7645249 35.5065623,20.2491593 C35.7050989,19.7337938 35.4482583,19.1550617 34.9328927,18.9565251 C34.8874594,18.9390226 34.8032271,18.9071755 34.6829301,18.8626137 C34.4846843,18.7891773 34.255875,18.7063 33.9992303,18.6156112 C33.268001,18.3572219 32.4584496,18.0872628 31.5922764,17.8187678 C31.0647543,17.6552473 30.5045537,17.9503289 30.3410332,18.4778509 C30.1775127,19.005373 30.4725943,19.5655736 31.0001164,19.7290941 Z" id="Rectangle-7-Copy-2"></path>
                    <path d="M24.8410852,24.2022244 C24.9084897,24.2139167 24.9084897,24.2139167 24.9759273,24.2258006 C26.4477248,24.4861647 28.0180688,24.8616449 29.6333158,25.3222344 C30.7878227,25.6514433 31.897011,26.0044096 32.9198942,26.3571866 C33.277294,26.4804483 33.5980277,26.5947482 33.8770162,26.6970926 C34.0428202,26.7579163 34.1568122,26.8008259 34.2139281,26.8228289 C34.7292936,27.0213655 35.3080257,26.7645249 35.5065623,26.2491593 C35.7050989,25.7337938 35.4482583,25.1550617 34.9328927,24.9565251 C34.8659681,24.9307434 34.7419422,24.8840568 34.5658139,24.8194457 C34.2749152,24.7127322 33.9419734,24.5940817 33.5719724,24.466474 C32.5165675,24.1024808 31.373323,23.7386771 30.1817565,23.3989006 C28.5049498,22.9207573 26.8697329,22.5297655 25.3243222,22.2563791 C25.2529638,22.2438043 25.2529638,22.2438043 25.1815811,22.2314218 C24.637359,22.1373965 24.1199573,22.5023531 24.0259319,23.0465752 C23.9319066,23.5907972 24.2968631,24.108199 24.8410852,24.2022244 Z" id="Rectangle-7-Copy-3"></path>
                    <path d="M19.7692674,29.5516587 C21.8005566,29.7568714 23.5240455,29.9746792 24.8410852,30.2022244 C24.9084897,30.2139167 24.9084897,30.2139167 24.9759273,30.2258006 C26.4477248,30.4861647 28.0180688,30.8616449 29.6333158,31.3222344 C30.7878227,31.6514433 31.897011,32.0044096 32.9198942,32.3571866 C33.277294,32.4804483 33.5980277,32.5947482 33.8770162,32.6970926 C34.0428202,32.7579163 34.1568122,32.8008259 34.2139281,32.8228289 C34.7292936,33.0213655 35.3080257,32.7645249 35.5065623,32.2491593 C35.7050989,31.7337938 35.4482583,31.1550617 34.9328927,30.9565251 C34.8659681,30.9307434 34.7419422,30.8840568 34.5658139,30.8194457 C34.2749152,30.7127322 33.9419734,30.5940817 33.5719724,30.466474 C32.5165675,30.1024808 31.373323,29.7386771 30.1817565,29.3989006 C28.5049498,28.9207573 26.8697329,28.5297655 25.3243222,28.2563791 C25.2529638,28.2438043 25.2529638,28.2438043 25.1815811,28.2314218 C23.810104,27.9944715 22.0442746,27.7713129 19.9702959,27.5617875 C19.4208081,27.506275 18.9303585,27.9067211 18.874846,28.4562089 C18.8193335,29.0056966 19.2197796,29.4961462 19.7692674,29.5516587 Z" id="Rectangle-7-Copy-4"></path>
                    <path d="M30.8227559,37.6743961 C31.7050197,37.945092 32.5324131,38.2193576 33.2804942,38.4828595 C33.727231,38.6402168 34.0464645,38.7583162 34.2139281,38.8228289 C34.7292936,39.0213655 35.3080257,38.7645249 35.5065623,38.2491593 C35.7050989,37.7337938 35.4482583,37.1550617 34.9328927,36.9565251 C34.8847632,36.937984 34.7955214,36.9042629 34.6681593,36.8571458 C34.4581959,36.7794706 34.2161322,36.6919817 33.9449533,36.5964624 C33.1721849,36.3242647 32.3190898,36.0414795 31.4094032,35.7623697 C30.8814117,35.6003715 30.3220645,35.8970677 30.1600663,36.4250593 C29.9980681,36.9530508 30.2947643,37.5123979 30.8227559,37.6743961 Z" id="Rectangle-7-Copy-5"></path>
                    <path d="M25.6934352,42.3602708 C26.9576443,42.6100431 28.2819146,42.9368808 29.6333158,43.3222344 C30.7878227,43.6514433 31.897011,44.0044096 32.9198942,44.3571866 C33.277294,44.4804483 33.5980277,44.5947482 33.8770162,44.6970926 C34.0428202,44.7579163 34.1568122,44.8008259 34.2139281,44.8228289 C34.7292936,45.0213655 35.3080257,44.7645249 35.5065623,44.2491593 C35.7050989,43.7337938 35.4482583,43.1550617 34.9328927,42.9565251 C34.8659681,42.9307434 34.7419422,42.8840568 34.5658139,42.8194457 C34.2749152,42.7127322 33.9419734,42.5940817 33.5719724,42.466474 C32.5165675,42.1024808 31.373323,41.7386771 30.1817565,41.3989006 C28.7803257,40.9992811 27.403466,40.659464 26.0810857,40.3981986 C25.5392745,40.2911519 25.0132711,40.6435982 24.9062244,41.1854094 C24.7991776,41.7272207 25.1516239,42.253224 25.6934352,42.3602708 Z" id="Rectangle-7-Copy-6"></path>
                    <path d="M19.6587656,47.5405383 C21.7374219,47.7489166 23.4997252,47.9704773 24.8410852,48.2022244 C24.9084897,48.2139167 24.9084897,48.2139167 24.9759273,48.2258006 C26.4477248,48.4861647 28.0180688,48.8616449 29.6333158,49.3222344 C30.7878227,49.6514433 31.897011,50.0044096 32.9198942,50.3571866 C33.277294,50.4804483 33.5980277,50.5947482 33.8770162,50.6970926 C34.0428202,50.7579163 34.1568122,50.8008259 34.2139281,50.8228289 C34.7292936,51.0213655 35.3080257,50.7645249 35.5065623,50.2491593 C35.7050989,49.7337938 35.4482583,49.1550617 34.9328927,48.9565251 C34.8659681,48.9307434 34.7419422,48.8840568 34.5658139,48.8194457 C34.2749152,48.7127322 33.9419734,48.5940817 33.5719724,48.466474 C32.5165675,48.1024808 31.373323,47.7386771 30.1817565,47.3989006 C28.5049498,46.9207573 26.8697329,46.5297655 25.3243222,46.2563791 C25.2529638,46.2438043 25.2529638,46.2438043 25.1815811,46.2314218 C23.7850522,45.9901433 21.9800749,45.7632175 19.858259,45.5505126 C19.3087285,45.4954241 18.818588,45.8962484 18.7634994,46.4457788 C18.7084109,46.9953093 19.1092352,47.4854498 19.6587656,47.5405383 Z" id="Rectangle-7-Copy-7"></path>
                    <path d="M11.3641623,10.8880452 C11.4409911,10.8924396 11.5884816,10.901197 11.799002,10.9142047 C12.1506356,10.9359317 12.5500591,10.9616853 12.9896339,10.9913521 C14.2458667,11.0761349 15.5712994,11.1752211 16.904654,11.2876775 C17.4549848,11.334093 17.9387433,10.9255888 17.9851588,10.3752579 C18.0315742,9.82492709 17.6230701,9.34116863 17.0727392,9.29475318 C15.7274017,9.18128607 14.3910426,9.08138313 13.1243071,8.99589147 C12.680843,8.96596219 12.2776547,8.93996588 11.9223442,8.91801169 C11.708698,8.90481077 11.5581705,8.89587311 11.47837,8.89130875 C10.9269865,8.85977117 10.4544355,9.2811896 10.4228979,9.83257315 C10.3913603,10.3839567 10.8127788,10.8565077 11.3641623,10.8880452 Z" id="Rectangle-7-Copy-14"></path>
                    <path d="M11.3641623,16.8880452 C11.4914522,16.8953259 11.7317786,16.9097543 12.0689593,16.9310919 C12.631815,16.9667108 13.2592154,17.0087638 13.9349576,17.0570092 C15.8649651,17.1948043 17.7946652,17.3544973 19.5936654,17.534027 C21.7002338,17.7442502 23.4854398,17.9680093 24.8410852,18.2022244 C25.4071039,18.3000155 25.9910488,18.4157671 26.5902848,18.5480623 C27.129583,18.6671248 27.6632898,18.3264565 27.7823524,17.7871583 C27.9014149,17.2478601 27.5607466,16.7141532 27.0214484,16.5950907 C26.3930414,16.4563553 25.7790031,16.3346385 25.1815811,16.2314218 C23.7703402,15.9876015 21.9422694,15.7584698 19.7922672,15.5439121 C17.9723986,15.3622999 16.0247392,15.2011206 14.0773874,15.0620872 C13.3960537,15.0134426 12.7633123,14.9710316 12.1952715,14.9350846 C11.8539143,14.9134827 11.6095708,14.8988131 11.47837,14.8913087 C10.9269865,14.8597712 10.4544355,15.2811896 10.4228979,15.8325732 C10.3913603,16.3839567 10.8127788,16.8565077 11.3641623,16.8880452 Z" id="Rectangle-7-Copy-13"></path>
                    <path d="M11.3641623,22.8880452 C11.4914522,22.8953259 11.7317786,22.9097543 12.0689593,22.9310919 C12.631815,22.9667108 13.2592154,23.0087638 13.9349576,23.0570092 C15.8649651,23.1948043 17.7946652,23.3544973 19.5936654,23.534027 C20.0844099,23.5830005 20.5594971,23.6329068 21.0172663,23.6837143 C21.5661805,23.744638 22.0605517,23.3490435 22.1214754,22.8001294 C22.182399,22.2512152 21.7868046,21.756844 21.2378904,21.6959203 C20.7725479,21.6442722 20.290147,21.5935976 19.7922672,21.5439121 C17.9723986,21.3622999 16.0247392,21.2011206 14.0773874,21.0620872 C13.3960537,21.0134426 12.7633123,20.9710316 12.1952715,20.9350846 C11.8539143,20.9134827 11.6095708,20.8988131 11.47837,20.8913087 C10.9269865,20.8597712 10.4544355,21.2811896 10.4228979,21.8325732 C10.3913603,22.3839567 10.8127788,22.8565077 11.3641623,22.8880452 Z" id="Rectangle-7-Copy-12"></path>
                    <path d="M11.3641623,28.8880452 C11.4225043,28.8913812 11.5370254,28.8981488 11.7008735,28.9081714 C11.9746493,28.9249183 12.2880502,28.944803 12.6359291,28.9677492 C13.6303361,29.0333406 14.7010423,29.1102698 15.8067881,29.1979145 C16.3573461,29.2415533 16.8390378,28.8306141 16.8826766,28.2800561 C16.9263154,27.7294982 16.5153763,27.2478065 15.9648183,27.2041676 C14.8497248,27.115782 13.7703356,27.038229 12.7675638,26.9720858 C12.4164301,26.9489249 12.0998625,26.9288393 11.8229855,26.9119027 C11.6564419,26.9017152 11.5404302,26.8948595 11.47837,26.8913087 C10.9269865,26.8597712 10.4544355,27.2811896 10.4228979,27.8325732 C10.3913603,28.3839567 10.8127788,28.8565077 11.3641623,28.8880452 Z" id="Rectangle-7-Copy-11"></path>
                    <path d="M11.3641623,34.8880452 C11.4914522,34.8953259 11.7317786,34.9097543 12.0689593,34.9310919 C12.631815,34.9667108 13.2592154,35.0087638 13.9349576,35.0570092 C15.8649651,35.1948043 17.7946652,35.3544973 19.5936654,35.534027 C21.7002338,35.7442502 23.4854398,35.9680093 24.8410852,36.2022244 C25.6507655,36.342113 26.4958339,36.5184946 27.3682981,36.7270211 C27.9054534,36.8554059 28.4449802,36.5240319 28.573365,35.9868766 C28.7017497,35.4497213 28.3703758,34.9101945 27.8332205,34.7818098 C26.921265,34.5638445 26.0350785,34.3788807 25.1815811,34.2314218 C23.7703402,33.9876015 21.9422694,33.7584698 19.7922672,33.5439121 C17.9723986,33.3622999 16.0247392,33.2011206 14.0773874,33.0620872 C13.3960537,33.0134426 12.7633123,32.9710316 12.1952715,32.9350846 C11.8539143,32.9134827 11.6095708,32.8988131 11.47837,32.8913087 C10.9269865,32.8597712 10.4544355,33.2811896 10.4228979,33.8325732 C10.3913603,34.3839567 10.8127788,34.8565077 11.3641623,34.8880452 Z" id="Rectangle-7-Copy-10"></path>
                    <path d="M11.3641623,40.8880452 C11.4914522,40.8953259 11.7317786,40.9097543 12.0689593,40.9310919 C12.631815,40.9667108 13.2592154,41.0087638 13.9349576,41.0570092 C15.8649651,41.1948043 17.7946652,41.3544973 19.5936654,41.534027 C20.2657377,41.6010959 20.907958,41.6698631 21.5161745,41.7402471 C22.064798,41.8037348 22.5610122,41.4104546 22.6245,40.8618311 C22.6879878,40.3132076 22.2947075,39.8169934 21.746084,39.7535056 C21.1269649,39.68186 20.4743829,39.6119833 19.7922672,39.5439121 C17.9723986,39.3622999 16.0247392,39.2011206 14.0773874,39.0620872 C13.3960537,39.0134426 12.7633123,38.9710316 12.1952715,38.9350846 C11.8539143,38.9134827 11.6095708,38.8988131 11.47837,38.8913087 C10.9269865,38.8597712 10.4544355,39.2811896 10.4228979,39.8325732 C10.3913603,40.3839567 10.8127788,40.8565077 11.3641623,40.8880452 Z" id="Rectangle-7-Copy-9"></path>
                    <path d="M11.3641623,46.8880452 C11.4230104,46.8914101 11.5384902,46.8982354 11.7036768,46.9083429 C11.9796856,46.9252315 12.2955697,46.9452834 12.6461159,46.9684213 C13.6481402,47.0345604 14.7264089,47.1121235 15.8391315,47.2004804 C16.3896832,47.2441975 16.8714334,46.8333268 16.9151505,46.2827751 C16.9588676,45.7322233 16.5479969,45.2504732 15.9974452,45.2067561 C14.8753028,45.1176512 13.7882886,45.0394589 12.7778401,44.9727639 C12.4240208,44.9494099 12.1049525,44.9291559 11.8258256,44.9120765 C11.6579307,44.9018032 11.5409526,44.8948894 11.47837,44.8913087 C10.9269865,44.8597712 10.4544355,45.2811896 10.4228979,45.8325732 C10.3913603,46.3839567 10.8127788,46.8565077 11.3641623,46.8880452 Z" id="Rectangle-7-Copy-8"></path>
                    <path d="M40.1974386,59.1907167 L2.06221396,59.1735486 C2.06445769,59.1735496 2.25242287,8.56382051 2.25242287,8.56382051 C2.25246808,8.55169161 5.52059509,8.54744218 5.52059509,8.54744218 L5.52059509,6.54744218 L2.26438564,6.54744218 C1.15077242,6.54744218 0.256572247,7.44686795 0.25243676,8.55636587 L0.0638054094,59.1637221 C0.0596815565,60.2700986 0.95398479,61.1730499 2.06131357,61.1735484 L41.0507202,61.1911011 L39.7499094,59.1905153 L40.1974386,59.1907167 Z" id="Rectangle-8"></path>
                </g>
            </g>
        </g>
    </g>
</svg>
