<svg xmlns="http://www.w3.org/2000/svg" width="81" height="62" viewBox="0 0 81 62"><g fill="#CF4646" fill-rule="evenodd"><path d="M7.04 54.15h.54c1.47.03 3.05.07 4.73.14 4.6.2 9.1.5 13.4 1.1 2.9.4 5.5.8 7.9 1.4 2.1.4 3.9.9 5.4 1.4V8.4l-.7-.25c-1.6-.55-3.3-1.1-5.1-1.6-2.5-.72-4.9-1.3-7.2-1.7l-.2-.04c-2.1-.3-4.8-.7-8.1-1-2.8-.3-5.8-.5-8.8-.7L7 2.9l.04 51.25zM5 .78s13.73.8 21.13 2.06C33.53 4.12 41 7 41 7v54.14s-5.42-2.36-15.6-3.73-20.36-1.2-20.36-1.2L5 .8z"/><path d="M21.54 11.74c1.28.15 2.4.3 3.3.46.07 0 .07 0 .14.03 1.47.26 3.04.63 4.65 1.1 1.16.32 2.27.67 3.3 1.03l.95.34.33.12c.6.2 1.1-.06 1.3-.57.2-.52 0-1.1-.5-1.3l-.3-.13-1-.35c-1-.37-2.2-.73-3.4-1.07-1.6-.48-3.3-.87-4.8-1.14l-.1-.03c-.9-.16-2.1-.32-3.4-.47-.5-.07-1 .33-1.1.87-.1.55.3 1.05.9 1.1zm9.46 8c.84.25 1.63.5 2.33.76l.88.32c.6.2 1.1-.06 1.3-.57.2-.52 0-1.1-.5-1.3l-.2-.1-.7-.23c-.7-.26-1.5-.53-2.4-.8-.5-.16-1.1.13-1.2.66-.1.53.2 1.1.7 1.25zm-6.16 4.46c.07 0 .07 0 .14.03 1.47.26 3.04.63 4.65 1.1 1.16.32 2.27.67 3.3 1.03l.95.34.33.12c.6.2 1.1-.06 1.3-.57.2-.52 0-1.1-.5-1.3l-.3-.13-1-.35c-1-.37-2.2-.73-3.4-1.07-1.6-.48-3.3-.87-4.8-1.14l-.1-.03c-.5-.1-1 .27-1.1.82-.1.54.3 1.06.8 1.15zm-5.07 5.35c2.03.2 3.75.42 5.07.65.07 0 .07 0 .14.03 1.47.26 3.04.63 4.65 1.1 1.16.32 2.27.67 3.3 1.03l.95.34.33.12c.6.2 1.1-.06 1.3-.57.2-.52 0-1.1-.5-1.3l-.3-.13-1-.35c-1-.37-2.2-.73-3.4-1.07-1.6-.48-3.3-.87-4.8-1.14l-.1-.03c-1.3-.24-3.1-.46-5.2-.67-.5-.05-1 .35-1.1.9 0 .55.4 1.04.9 1.1zm11.05 8.12c.9.28 1.7.55 2.46.8l.93.35c.6.2 1.1-.06 1.3-.57.2-.52 0-1.1-.5-1.3l-.2-.1-.7-.25c-.7-.28-1.6-.56-2.5-.84-.5-.16-1.1.14-1.2.67-.2.52.1 1.08.68 1.24zm-5.12 4.7c1.26.24 2.58.57 3.93.95 1.16.33 2.27.68 3.3 1.04l.95.34.33.12c.6.2 1.1-.06 1.3-.57.2-.52 0-1.1-.5-1.3l-.3-.13-1-.35c-1-.37-2.2-.73-3.4-1.07-1.4-.4-2.7-.74-4.1-1-.5-.1-1 .24-1.1.8-.1.53.3 1.05.8 1.16zm-6.04 5.17c2.08.2 3.84.43 5.18.66.07 0 .07 0 .14.03 1.47.26 3.04.63 4.65 1.1 1.16.32 2.27.67 3.3 1.03l.95.34.33.12c.6.2 1.1-.06 1.3-.57.2-.52 0-1.1-.5-1.3l-.3-.13-1-.35c-1-.37-2.2-.73-3.4-1.07-1.6-.48-3.3-.87-4.8-1.14l-.1-.03c-1.4-.24-3.2-.47-5.3-.68-.5-.05-1 .35-1.1.9 0 .55.4 1.04.9 1.1zm-8.3-36.64h.44c.35.04.75.06 1.2.1 1.25.08 2.57.18 3.9.3.55.03 1.04-.37 1.1-.92.03-.56-.38-1.04-.93-1.1-1.34-.1-2.68-.2-3.95-.28l-1.2-.08-.44-.03c-.55-.1-1.03.3-1.06.9-.03.5.4 1 .94 1zm0 6c.13 0 .37 0 .7.03l1.87.13c1.93.13 3.86.3 5.66.47 2.1.2 3.9.44 5.2.67l1.7.35c.5.12 1-.22 1.2-.76.1-.6-.2-1.1-.8-1.2-.7-.2-1.3-.3-1.9-.4-1.4-.3-3.3-.5-5.4-.7-1.8-.2-3.8-.4-5.7-.5-.7-.1-1.3-.1-1.9-.1l-.8-.1c-.5-.1-1 .4-1.08.9-.04.5.4 1 .93 1zm0 6c.13 0 .37 0 .7.03l1.87.13c1.93.13 3.86.3 5.66.47l1.4.15c.5.06 1-.33 1.1-.88 0-.55-.4-1.04-.9-1.1l-1.5-.16c-1.9-.18-3.8-.34-5.7-.48-.7-.05-1.3-.1-1.9-.12l-.7-.05c-.6-.1-1 .3-1.1.9-.1.5.4 1 .9 1zm0 6h.34l.94.07c1 .06 2.06.14 3.17.23.6.04 1.1-.37 1.1-.92.1-.55-.3-1.03-.9-1.08l-3.2-.23-.9-.06h-.3c-.5 0-1 .4-1 1s.4 1.1 1 1.1zm0 6c.13 0 .37 0 .7.03l1.87.13c1.93.13 3.86.3 5.66.47 2.1.2 3.9.44 5.2.67.8.14 1.6.32 2.5.53.5.13 1-.2 1.2-.74.1-.6-.2-1.1-.8-1.3l-2.7-.6c-1.4-.3-3.3-.5-5.4-.7-1.8-.2-3.8-.4-5.7-.5-.7-.1-1.3-.1-1.9-.1l-.8-.1c-.6-.1-1 .4-1.1.9-.04.5.4 1 .93 1zm0 6c.13 0 .37 0 .7.03l1.87.13c1.93.13 3.86.3 5.66.47l1.9.2c.5.07 1-.32 1.1-.87 0-.55-.4-1.04-.9-1.1-.6-.08-1.3-.15-2-.22-1.9-.18-3.8-.34-5.7-.48-.7-.05-1.3-.1-1.9-.12l-.7-.05c-.6-.1-1 .3-1.1.9-.1.5.4 1 .9 1zm0 6h.34l.95.07c1 .06 2.08.14 3.2.23.54.04 1.02-.37 1.07-.92a.997.997 0 0 0-.92-1.07l-3.22-.2h-1.3c-.55 0-1.03.4-1.06 1-.03.6.4 1.1.94 1.1z"/><path d="M40.2 59.2l-38.14-.03.2-50.6c0-.02 3.26-.02 3.26-.02v-2H2.26c-1.1 0-2 .9-2 2l-.2 50.6c0 1.12.9 2.02 2 2.02l39 .02-1.3-2h.44z"/><path d="M73.96 54.15h-.54c-1.47.03-3.05.07-4.73.14-4.6.2-9.1.5-13.4 1.1-2.9.4-5.5.8-7.9 1.4-2.1.4-3.9.9-5.4 1.4V8.4l.7-.25c1.6-.55 3.3-1.1 5.1-1.6 2.5-.72 4.9-1.3 7.2-1.7l.2-.04c2.1-.3 4.8-.7 8.1-1 2.8-.3 5.8-.5 8.8-.7.6 0 1.2-.1 1.8-.1l-.1 51.3zM76 .78s-13.73.8-21.13 2.06C47.47 4.12 40 7 40 7v54.14s5.42-2.36 15.6-3.73 20.36-1.2 20.36-1.2L76 .8z"/><path d="M59.46 11.74c-1.28.15-2.4.3-3.3.46-.07 0-.07 0-.14.03-1.47.26-3.04.63-4.65 1.1-1.16.32-2.27.67-3.3 1.03l-.95.34-.33.12c-.6.2-1.1-.06-1.3-.57-.2-.52 0-1.1.5-1.3l.3-.13 1-.35c1-.37 2.2-.73 3.4-1.07 1.6-.48 3.3-.87 4.8-1.14l.1-.03c.9-.16 2.1-.32 3.4-.47.5-.07 1 .33 1.1.87.1.55-.3 1.05-.9 1.1zm-9.46 8c-.84.25-1.63.5-2.33.76l-.88.32c-.6.2-1.1-.06-1.3-.57-.2-.52 0-1.1.5-1.3l.2-.1.7-.23c.7-.26 1.5-.53 2.4-.8.5-.16 1.1.13 1.2.66.1.53-.2 1.1-.7 1.25zm6.16 4.46c-.07 0-.07 0-.14.03-1.47.26-3.04.63-4.65 1.1-1.16.32-2.27.67-3.3 1.03l-.95.34-.33.12c-.6.2-1.1-.06-1.3-.57-.2-.52 0-1.1.5-1.3l.3-.13 1-.35c1-.37 2.2-.73 3.4-1.07 1.6-.48 3.3-.87 4.8-1.14l.1-.03c.5-.1 1 .27 1.1.82.1.54-.3 1.06-.8 1.15zm5.07 5.35c-2.03.2-3.75.42-5.07.65-.07 0-.07 0-.14.03-1.47.26-3.04.63-4.65 1.1-1.16.32-2.27.67-3.3 1.03l-.95.34-.33.12c-.6.2-1.1-.06-1.3-.57-.2-.52 0-1.1.5-1.3l.3-.13 1-.35c1-.37 2.2-.73 3.4-1.07 1.6-.48 3.3-.87 4.8-1.14l.1-.03c1.3-.24 3.1-.46 5.2-.67.5-.05 1 .35 1.1.9 0 .55-.4 1.04-.9 1.1zm-11.05 8.12c-.9.28-1.7.55-2.46.8l-.93.35c-.6.2-1.1-.06-1.3-.57-.2-.52 0-1.1.5-1.3l.2-.1.7-.25c.7-.28 1.6-.56 2.5-.84.5-.16 1.1.14 1.2.67.2.52-.1 1.08-.7 1.24zm5.12 4.7c-1.26.24-2.58.57-3.93.95-1.16.33-2.27.68-3.3 1.04l-.95.34-.33.12c-.6.2-1.1-.06-1.3-.57-.2-.52 0-1.1.5-1.3l.3-.13 1-.35c1-.37 2.2-.73 3.4-1.07 1.4-.4 2.7-.74 4.1-1 .5-.1 1 .24 1.1.8.1.53-.3 1.05-.8 1.16zm6.04 5.17c-2.08.2-3.84.43-5.18.66-.07 0-.07 0-.14.03-1.47.26-3.04.63-4.65 1.1-1.16.32-2.27.67-3.3 1.03l-.95.34-.33.12c-.6.2-1.1-.06-1.3-.57-.2-.52 0-1.1.5-1.3l.3-.13 1-.35c1-.37 2.2-.73 3.4-1.07 1.6-.48 3.3-.87 4.8-1.14l.1-.03c1.4-.24 3.2-.47 5.3-.68.5-.05 1 .35 1.1.9 0 .55-.4 1.04-.9 1.1zm8.3-36.64h-.44c-.35.04-.75.06-1.2.1-1.25.08-2.57.18-3.9.3-.55.03-1.04-.37-1.1-.92-.03-.56.38-1.04.93-1.1 1.34-.1 2.68-.2 3.95-.28l1.2-.08.44-.03c.55-.1 1.03.3 1.06.9.03.5-.4 1-.94 1zm0 6c-.13 0-.37 0-.7.03l-1.87.13c-1.93.13-3.86.3-5.66.47-2.1.2-3.9.44-5.2.67l-1.7.35c-.5.12-1-.22-1.2-.76-.1-.6.2-1.1.8-1.2.7-.2 1.3-.3 1.9-.4 1.4-.3 3.3-.5 5.4-.7 1.8-.2 3.8-.4 5.7-.5.7-.1 1.3-.1 1.9-.1l.8-.1c.5-.1 1 .4 1.08.9.04.5-.4 1-.93 1zm0 6c-.13 0-.37 0-.7.03l-1.87.13c-1.93.13-3.86.3-5.66.47l-1.4.15c-.5.06-1-.33-1.1-.88 0-.55.4-1.04.9-1.1l1.5-.16c1.9-.18 3.8-.34 5.7-.48.7-.05 1.3-.1 1.9-.12l.7-.05c.6-.1 1 .3 1.1.9.1.5-.4 1-.9 1zm0 6h-.34l-.94.07c-1 .06-2.06.14-3.17.23-.6.04-1.1-.37-1.1-.92-.1-.55.3-1.03.9-1.08l3.2-.23.9-.06h.3c.5 0 1 .4 1 1s-.4 1.1-1 1.1zm0 6c-.13 0-.37 0-.7.03l-1.87.13c-1.93.13-3.86.3-5.66.47-2.1.2-3.9.44-5.2.67-.8.14-1.6.32-2.5.53-.5.13-1-.2-1.2-.74-.1-.6.2-1.1.8-1.3l2.7-.6c1.4-.3 3.3-.5 5.4-.7 1.8-.2 3.8-.4 5.7-.5.7-.1 1.3-.1 1.9-.1l.8-.1c.6-.1 1.08.4 1.1.9.04.5-.4 1-.93 1zm0 6c-.13 0-.37 0-.7.03l-1.87.13c-1.93.13-3.86.3-5.66.47l-1.9.2c-.5.07-1-.32-1.1-.87 0-.55.4-1.04.9-1.1.6-.08 1.3-.15 2-.22 1.9-.18 3.8-.34 5.7-.48.7-.05 1.3-.1 1.9-.12l.7-.05c.6-.1 1 .3 1.1.9.1.5-.4 1-.9 1zm0 6h-.34l-.95.07c-1 .06-2.08.14-3.2.23a1.01 1.01 0 0 1-1.07-.92.997.997 0 0 1 .92-1.07l3.22-.2h1.3c.55 0 1.03.4 1.06 1 .03.6-.4 1.1-.94 1.1z"/><path d="M40.8 59.2l38.14-.03-.2-50.6c0-.02-3.26-.02-3.26-.02v-2h3.26c1.1 0 2 .9 2 2l.2 50.6c0 1.12-.9 2.02-2 2.02l-39 .02 1.3-2h-.44z"/></g></svg>