<?xml version="1.0" encoding="UTF-8"?>
<svg width="76px" height="60px" viewBox="0 0 76 59" version="1.1" xmlns="http://www.w3.org/2000/svg" xmlns:xlink="http://www.w3.org/1999/xlink">
    <!-- Generator: Sketch 41.2 (35397) - http://www.bohemiancoding.com/sketch -->
    <title>browser</title>
    <desc>Created with Sketch.</desc>
    <defs></defs>
    <g stroke="none" stroke-width="1" fill="none" fill-rule="evenodd">
        <g id="icons" transform="translate(-5.000000, -8.000000)" fill="#CF4646">
            <g id="browser" transform="translate(5.000000, 8.000000)">
                <path d="M2,4.00892456 L2,54.9910754 C2,56.0991349 2.8996624,57 4.00571844,57 L71.9942816,57 C73.1064063,57 74,56.1044188 74,54.9910754 L74,4.00892456 C74,2.90086513 73.1003376,2 71.9942816,2 L4.00571844,2 C2.89359369,2 2,2.89558116 2,4.00892456 Z M0,4.00892456 C0,1.79485666 1.78518308,0 4.00571844,0 L71.9942816,0 C74.2065788,0 76,1.79796785 76,4.00892456 L76,54.9910754 C76,57.2051433 74.2148169,59 71.9942816,59 L4.00571844,59 C1.79342123,59 0,57.2020322 0,54.9910754 L0,4.00892456 Z" id="Rectangle-3"></path>
                <polygon id="Path-15" points="1.13984889 12 74.9880604 12 74.9880604 10 1.13984889 10"></polygon>
                <circle id="Oval-2" cx="6" cy="6" r="1"></circle>
                <circle id="Oval-2-Copy" cx="9" cy="6" r="1"></circle>
                <circle id="Oval-2-Copy-2" cx="12" cy="6" r="1"></circle>
                <path d="M16,6 C16,5.44771525 16.4445307,5 17.0025482,5 L62.9974518,5 C63.5511439,5 64,5.44386482 64,6 C64,6.55228475 63.5554693,7 62.9974518,7 L17.0025482,7 C16.4488561,7 16,6.55613518 16,6 Z" id="Path"></path>
                <path d="M67,6 C67,5.44771525 67.4433532,5 68.0093689,5 L69.9906311,5 C70.5480902,5 71,5.44386482 71,6 C71,6.55228475 70.5566468,7 69.9906311,7 L68.0093689,7 C67.4519098,7 67,6.55613518 67,6 Z" id="Path"></path>
            </g>
        </g>
    </g>
</svg>
