<?xml version="1.0" encoding="UTF-8"?>
<svg width="81px" height="65px" viewBox="0 0 86 72" version="1.1" xmlns="http://www.w3.org/2000/svg" xmlns:xlink="http://www.w3.org/1999/xlink">
    <!-- Generator: Sketch 41.2 (35397) - http://www.bohemiancoding.com/sketch -->
    <title>guage</title>
    <desc>Created with Sketch.</desc>
    <defs></defs>
    <g id="dribbble" stroke="none" stroke-width="1" fill="none" fill-rule="evenodd">
        <g id="icons" transform="translate(-600.000000, 0.000000)" fill="#CF4646">
            <g id="guage" transform="translate(599.000000, 0.000000)">
                <path d="M78.971032,68.5316539 C91.1596234,51.5458017 89.3471336,28.0359505 74.4055916,13.0944084 C57.613047,-3.69813614 30.386953,-3.69813614 13.5944084,13.0944084 C-1.18446354,27.8732804 -3.13349848,51.0577258 8.66845362,68.0214375 C8.9838638,68.474797 9.60707479,68.586627 10.0604343,68.2712168 C10.5137938,67.9558067 10.6256239,67.3325957 10.3102137,66.8792361 C-0.941082812,50.7070175 0.917388716,28.5998552 15.008622,14.508622 C31.0201179,-1.50287399 56.9798821,-1.50287399 72.991378,14.508622 C87.2376987,28.7549427 88.9659667,51.1723514 77.3460955,67.365643 C77.0241105,67.8143569 77.1268445,68.4391317 77.5755583,68.7611167 C78.0242722,69.0831017 78.649047,68.9803677 78.971032,68.5316539 Z" id="Oval"></path>
                <path d="M43.6711683,38.823803 C41.1321339,39.0163983 39.0819921,41.0246408 38.8577948,43.5872283 C38.6058397,46.4670874 40.7361769,49.0059244 43.616036,49.2578795 C46.1507157,49.4796352 48.4647809,47.8475657 49.1235479,45.4183742 C49.2680997,44.8853421 48.9531742,44.3360519 48.4201421,44.1915001 C47.88711,44.0469483 47.3378197,44.3618738 47.1932679,44.8949059 C46.7868651,46.3935088 45.3562597,47.4024896 43.7903475,47.2654901 C42.0108547,47.1098046 40.6944987,45.5410327 40.8501842,43.7615398 C40.9886907,42.1784024 42.2561097,40.936886 43.8224413,40.8180739 C44.373144,40.776301 44.7857132,40.2960046 44.7439403,39.7453019 C44.7021674,39.1945992 44.2218711,38.7820301 43.6711683,38.823803 Z" id="Oval-Copy"></path>
                <path d="M17.9181527,34.2021927 L39.847044,43.2566013 C40.3575256,43.4673785 40.9422213,43.22442 41.1529985,42.7139384 C41.3637756,42.2034568 41.1208171,41.6187611 40.6103356,41.407984 L18.6814442,32.3535753 C18.1709626,32.1427982 17.5862669,32.3857567 17.3754898,32.8962383 C17.1647127,33.4067198 17.4076711,33.9914155 17.9181527,34.2021927 Z" id="Path-2"></path>
                <path d="M30,61.992017 C30,61.4473587 30.4487744,61 30.9932874,61 L56.0067126,61 C56.5519203,61 57,61.449086 57,61.992017 L57,69.007983 C57,69.5526413 56.5512256,70 56.0067126,70 L30.9932874,70 C30.4480797,70 30,69.550914 30,69.007983 L30,61.992017 Z M28,61.992017 L28,69.007983 C28,70.6544805 29.3425046,72 30.9932874,72 L56.0067126,72 C57.6543829,72 59,70.658628 59,69.007983 L59,61.992017 C59,60.3455195 57.6574954,59 56.0067126,59 L30.9932874,59 C29.3456171,59 28,60.341372 28,61.992017 Z" id="Rectangle-2"></path>
                <rect id="Rectangle-2-Copy" x="41" y="64" width="5" height="3" rx="1.5"></rect>
                <rect id="Rectangle-2-Copy-2" x="34" y="64" width="5" height="3" rx="1.5"></rect>
                <rect id="Rectangle-2-Copy-3" x="48" y="64" width="5" height="3" rx="1.5"></rect>
                <g id="Group-2" transform="translate(1.000000, 43.000000)">
                    <path d="M1.00268239,2 L7.75272252,2 C8.30500727,2 8.75272252,1.55228475 8.75272252,1 C8.75272252,0.44771525 8.30500727,0 7.75272252,0 L1.00268239,0 C0.450397639,0 0.00268238834,0.44771525 0.00268238834,1 C0.00268238834,1.55228475 0.450397639,2 1.00268239,2 Z" id="Path-3"></path>
                    <path d="M78.0026824,2 L84.7527225,2 C85.3050073,2 85.7527225,1.55228475 85.7527225,1 C85.7527225,0.44771525 85.3050073,0 84.7527225,0 L78.0026824,0 C77.4503976,0 77.0026824,0.44771525 77.0026824,1 C77.0026824,1.55228475 77.4503976,2 78.0026824,2 Z" id="Path-3-Copy"></path>
                </g>
                <g id="Group-2-Copy" transform="translate(43.500000, 6.000000) rotate(-90.000000) translate(-43.500000, -6.000000) translate(39.000000, 5.000000)">
                    <path d="M1.00268239,2 L7.75272252,2 C8.30500727,2 8.75272252,1.55228475 8.75272252,1 C8.75272252,0.44771525 8.30500727,0 7.75272252,0 L1.00268239,0 C0.450397639,0 0.00268238834,0.44771525 0.00268238834,1 C0.00268238834,1.55228475 0.450397639,2 1.00268239,2 Z" id="Path-3-Copy"></path>
                </g>
                <g id="Group-2-Copy-2" transform="translate(57.958762, 8.616118) rotate(-68.000000) translate(-57.958762, -8.616118) translate(53.458762, 7.616118)">
                    <path d="M1.00268239,2 L7.75272252,2 C8.30500727,2 8.75272252,1.55228475 8.75272252,1 C8.75272252,0.44771525 8.30500727,-6.1817218e-13 7.75272252,-6.1817218e-13 L1.00268239,-6.1817218e-13 C0.450397639,-6.1817218e-13 0.00268238834,0.44771525 0.00268238834,1 C0.00268238834,1.55228475 0.450397639,2 1.00268239,2 Z" id="Path-3-Copy"></path>
                </g>
                <g id="Group-2-Copy-3" transform="translate(29.417104, 8.865198) scale(-1, 1) rotate(-67.000000) translate(-29.417104, -8.865198) translate(24.917104, 7.865198)">
                    <path d="M1.00268239,2 L7.75272252,2 C8.30500727,2 8.75272252,1.55228475 8.75272252,1 C8.75272252,0.44771525 8.30500727,9.23705556e-14 7.75272252,9.23705556e-14 L1.00268239,9.23705556e-14 C0.450397639,9.23705556e-14 0.00268238834,0.44771525 0.00268238834,1 C0.00268238834,1.55228475 0.450397639,2 1.00268239,2 Z" id="Path-3-Copy"></path>
                </g>
                <g id="Group-2-Copy-4" transform="translate(17.129942, 16.922836) scale(-1, 1) rotate(-45.000000) translate(-17.129942, -16.922836) translate(12.629942, 15.922836)">
                    <path d="M1.00268239,2 L7.75272252,2 C8.30500727,2 8.75272252,1.55228475 8.75272252,1 C8.75272252,0.44771525 8.30500727,-1.13153931e-12 7.75272252,-1.13153931e-12 L1.00268239,-1.13153931e-12 C0.450397639,-1.13153931e-12 0.00268238834,0.44771525 0.00268238834,1 C0.00268238834,1.55228475 0.450397639,2 1.00268239,2 Z" id="Path-3-Copy"></path>
                </g>
                <g id="Group-2-Copy-5" transform="translate(44.000000, 44.500000) scale(-1, 1) rotate(-23.000000) translate(-44.000000, -44.500000) translate(1.000000, 43.000000)">
                    <path d="M1.5281787,2.2179161 L7.78761256,1.99939116 C8.33956105,1.98012192 8.77138291,1.51705846 8.75211367,0.965109961 C8.73284444,0.413161465 8.26978097,-0.0186603939 7.71783248,0.00060884269 L1.45839862,0.219133783 C0.906450123,0.23840302 0.474628264,0.701466485 0.4938975,1.25341498 C0.513166737,1.80536348 0.976230202,2.23718533 1.5281787,2.2179161 Z" id="Path-3"></path>
                    <path d="M78.0026824,2 L84.7527225,2 C85.3050073,2 85.7527225,1.55228475 85.7527225,1 C85.7527225,0.44771525 85.3050073,-9.20863386e-12 84.7527225,-9.20863386e-12 L78.0026824,-9.20863386e-12 C77.4503976,-9.20863386e-12 77.0026824,0.44771525 77.0026824,1 C77.0026824,1.55228475 77.4503976,2 78.0026824,2 Z" id="Path-3-Copy"></path>
                </g>
                <g id="Group-2-Copy-7" transform="translate(70.870058, 16.922836) rotate(-45.000000) translate(-70.870058, -16.922836) translate(66.370058, 15.922836)">
                    <path d="M1.00268239,2 L7.75272252,2 C8.30500727,2 8.75272252,1.55228475 8.75272252,1 C8.75272252,0.44771525 8.30500727,-2.42295073e-12 7.75272252,-2.42295073e-12 L1.00268239,-2.42295073e-12 C0.450397639,-2.42295073e-12 0.00268238835,0.44771525 0.00268238835,1 C0.00268238835,1.55228475 0.450397639,2 1.00268239,2 Z" id="Path-3-Copy"></path>
                </g>
                <g id="Group-2-Copy-6" transform="translate(43.609269, 43.579495) rotate(-23.000000) translate(-43.609269, -43.579495) translate(0.609269, 42.079495)">
                    <path d="M1.52440711,2.93213962 L7.74181815,2.99994055 C8.29407007,3.00596286 8.74664075,2.56315628 8.75266306,2.01090436 C8.75868537,1.45865245 8.31587879,1.00608177 7.76362688,1.00005945 L1.54621584,0.932258525 C0.993963923,0.926236212 0.541393242,1.36904279 0.535370929,1.92129471 C0.529348617,2.47354662 0.972155199,2.9261173 1.52440711,2.93213962 Z" id="Path-3"></path>
                    <path d="M78.0026824,3 L84.7527225,3 C85.3050073,3 85.7527225,2.55228475 85.7527225,2 C85.7527225,1.44771525 85.3050073,1 84.7527225,1 L78.0026824,1 C77.4503976,1 77.0026824,1.44771525 77.0026824,2 C77.0026824,2.55228475 77.4503976,3 78.0026824,3 Z" id="Path-3-Copy"></path>
                </g>
            </g>
        </g>
    </g>
</svg>
