<svg xmlns="http://www.w3.org/2000/svg" width="81" height="65" viewBox="0 0 86 72"><g fill="#CF4646" fill-rule="evenodd" transform="translate(-1)"><path d="M78.97 68.53c12.2-16.98 10.38-40.5-4.56-55.44-16.8-16.8-44-16.8-60.8 0C-1.2 27.8-3.1 51 8.7 68c.3.45.94.57 1.4.25.44-.3.56-.94.24-1.4C-.92 50.72.94 28.6 15 14.52c16.02-16 41.98-16 58 0C87.24 28.77 88.97 51.2 77.35 67.4c-.33.43-.22 1.06.23 1.4.44.3 1.07.2 1.4-.25z"/><path d="M43.67 38.82c-2.54.2-4.6 2.2-4.8 4.77-.26 2.8 1.87 5.4 4.75 5.6 2.53.2 4.84-1.4 5.5-3.88.15-.53-.17-1.08-.7-1.23a.995.995 0 0 0-1.23.7c-.4 1.5-1.9 2.5-3.4 2.37-1.8-.16-3.1-1.73-3-3.5.1-1.6 1.4-2.83 2.92-2.95.55-.05.97-.53.92-1.08-.05-.57-.53-.98-1.08-.94z"/><path d="M17.92 34.2l21.93 9.06c.5.2 1.1-.04 1.3-.55.2-.5-.03-1-.54-1.3l-21.9-9c-.5-.2-1.1.1-1.3.6-.2.5.1 1.1.6 1.3zM30 62c0-.55.45-1 1-1h25c.55 0 1 .45 1 1v7c0 .55-.45 1-1 1H31c-.55 0-1-.45-1-1v-7zm-2 0v7c0 1.65 1.34 3 3 3h25c1.65 0 3-1.34 3-3v-7c0-1.65-1.34-3-3-3H31c-1.65 0-3 1.34-3 3z"/><rect width="5" height="3" x="41" y="64" rx="1.5"/><rect width="5" height="3" x="34" y="64" rx="1.5"/><rect width="5" height="3" x="48" y="64" rx="1.5"/><path d="M2 45h6.75c.56 0 1-.45 1-1s-.44-1-1-1H2c-.55 0-1 .45-1 1s.45 1 1 1zm77 0h6.75c.56 0 1-.45 1-1s-.44-1-1-1H79c-.55 0-1 .45-1 1s.45 1 1 1zM44.5 9.5V2.75c0-.56-.45-1-1-1s-1 .44-1 1V9.5c0 .55.45 1 1 1s1-.45 1-1zm13.08 2.73l2.52-6.26c.2-.5-.04-1.1-.55-1.3-.5-.2-1.1.04-1.3.56l-2.53 6.25c-.2.52.04 1.1.55 1.3.52.2 1.1-.03 1.3-.55zm-27.72.25l-2.63-6.22a.98.98 0 0 1 .53-1.3c.5-.23 1.1 0 1.3.52l2.64 6.2c.22.52-.02 1.1-.53 1.33-.5.3-1.1 0-1.3-.5zM18.9 20.1l-4.78-4.77c-.4-.4-.4-1.02 0-1.4a.99.99 0 0 1 1.42 0l4.77 4.76c.4.3.4 1 0 1.4-.3.4-1 .4-1.4 0zm63 41.27l-5.68-2.65c-.5-.24-.72-.83-.5-1.33.25-.5.84-.8 1.34-.5l5.68 2.6c.5.2.72.8.48 1.3-.23.5-.82.7-1.33.5zm-70.32-30.1l-6.2-2.62c-.52-.22-.75-.8-.54-1.32.22-.5.8-.74 1.3-.52l6.23 2.7c.5.2.74.8.53 1.3-.22.5-.8.8-1.32.58zM69.1 20.1l4.78-4.77c.4-.4.4-1.02 0-1.4a.99.99 0 0 0-1.42 0L67.7 18.7c-.4.37-.4 1 0 1.4.37.4 1 .4 1.4 0zM6 61.1l5.74-2.36c.5-.2.75-.8.54-1.3a.99.99 0 0 0-1.3-.55l-5.75 2.3c-.5.2-.76.8-.55 1.3.22.5.8.7 1.3.5zm70.42-29.82l6.2-2.63c.52-.22.75-.8.54-1.32a.99.99 0 0 0-1.3-.52l-6.23 2.7c-.5.2-.74.8-.53 1.3.22.5.8.8 1.32.58z"/></g></svg>