<?xml version="1.0" encoding="UTF-8"?>
<svg xmlns="http://www.w3.org/2000/svg" width="286" height="620" viewBox="0 0 286 620">
  <path fill="#F7F8F8" fill-rule="evenodd" d="M262.6 341.06L282.87 159s-19.2 15.9-141.42 15.9C19.22 174.9 2 159.33 2 159.33L18.06 314.1c8.6-24.47 29.1-74.25 61.45-72.58 14.7.75 34.3 29.04 17.5 30-7.1.4-7.8-14.12-16.2-16.25-6.07-1.54-14.53 3.4-20 8.75-10.9 10.67-34.35 52.76-31.25 73.75 3.96 26.75 36.93-9.3 42.5-20 3.94-7.54 6.6-29.88 15.2-27.54 8.58 2.34-.76 25.4-7 45.78-7 22.9-10.67 47.08-19.44 44.3-8.77-2.8 5.5-32.32 5-37.5-8.25 7.6-23.47 26.9-42.93 17.3l10.3 99.34s26.83 21.2 107.65 21.2c80.8 0 108.65-20.86 108.65-20.86l11.43-102.65c-11.2 10.1-41.8 26.2-43.82 6.8-1.66-16.05 35.16-39.32 25.7-40.1-20.33 1.2-30.46 23.87-40.7 47.6-3.74 8.7-16.57 45.84-25 41.27-8.4-4.58 10.92-35.1 16.33-53.2-6.25 4.56-29.17 22.36-35.07 5.7-9.5 8.05-29.8 12.42-27.5-8.76-5.04 8.96-16.4 21.45-30 16.26-17.86-6.82 10.37-63.75 17.4-60.88 7 2.87-1.43 15.84-3.64 20.88-4.86 11.08-10.47 25.02-6.7 27.87 6.4 4.88 23.9-18.5 24.27-19 3.27-4.32 12.6-32.6 20.1-29.34 7.5 3.24-18.73 40.56-8.92 47.97 2 1.5 10.08-.92 15-6.25 3.2-3.44 2.1-11.07 12.7-36.4 10.64-25.33 20.1-56.87 27.4-54.47 7.27 2.4 1.27 18.6-1.34 24.63-12.24 28.34-33.45 75.14-23.45 71.6 10-3.55 15.2-3.75 25-15.2 9.8-11.47 9.34-30.35 15.87-29.94 6.54.4 5.44 6.44 3.86 11.05 6.42-7.34 30.45-22.83 36.25-7.5 6.9 18.16-34.36 44.38-24.07 43.05 9.55-1.26 24.78-10.66 32.2-19.64zm-83.7-211.42c-11.42-.42-23.4-.64-35.74-.64-78.6 0-142.3 8.96-142.3 20s63.7 20 142.28 20 142.28-8.96 142.28-20c0-8-33.43-14.9-81.72-18.1l9.85-38.93 70.47-74.15-.33-.28c.2-.13.42-.3.6-.5 1.8-2.05-.9-7.28-6-11.7-5.1-4.4-10.67-6.3-12.44-4.27-.24.27-.4.6-.48.95L190.8 81l-11.94 48.64zm41.52 470.54c0 10.52-34.7 19.05-77.5 19.05s-77.5-8.53-77.5-19.05l-6.64-98.14L40 470.86s37.52 15.3 101.3 15.3c63.8 0 101.9-15.6 101.9-15.6l-16.74 28.6-6.06 101.02zM196.9 154.44c2.4-.32 6.1-.77 6.1-3.67 0-1.7-1.44-2.7-3.08-3.2l-1.22 1.9c1 .25 1.6.56 1.6.88-.02 1.08-7.7 1.6-14.04 1.68-6.34.08-14.64-.67-14.63-1.76 0-.23.3-.45.85-.63l-1.23-1.93c-1.3.58-2.32 1.4-2.32 2.86 0 .76.33 1.87.95 2.43 2.3 2.1 8.05 2.17 16.16 2.13 8.1-.03 10.87-.65 10.87-.65z"/>
</svg>
