<?xml version="1.0" encoding="utf-8"?>
<!-- Generator: Adobe Illustrator 19.1.0, SVG Export Plug-In . SVG Version: 6.00 Build 0)  -->
<svg version="1.1" id="Layer_1" xmlns="http://www.w3.org/2000/svg" xmlns:xlink="http://www.w3.org/1999/xlink" x="0px" y="0px"
	 viewBox="0 0 512 512" style="enable-background:new 0 0 512 512;" xml:space="preserve">
<style type="text/css">
	.st0{fill:#C1272D;}
	.st1{fill:#EFCCA3;}
	.st2{fill:#ED1C24;}
	.st3{fill:#CCAC8D;}
	.st4{fill:#FFFFFF;}
	.st5{fill:#FF931E;}
	.st6{fill:#FFB81E;}
	.st7{fill:#56332B;}
	.st8{fill:#442823;}
	.st9{fill:#7F4A41;}
	.st10{fill:#331712;}
	.st11{fill:#FFCC66;}
	.st12{fill:#CCCCCC;}
	.st13{fill:#B3B3B3;}
	.st14{fill:#989898;}
	.st15{fill:#323232;}
	.st16{fill:#1E1E1E;}
	.st17{fill:#4C4C4C;}
	.st18{fill:#E6E6E6;}
	.st19{fill:#606060;}
</style>
<g>
	<path class="st0" d="M363.7,394.6c-68.5,35.1-143.8,35.1-212.4,0c-6.3-3.2-11.3-13.5-11.3-22.4c0-7.6,0-15.3,0-22.9
		c0-9,5.1-13.3,11.3-10.1c68.5,35.1,143.8,35.1,212.4,0c6.3-3.2,11.3,1.2,11.3,10.1c0,7.6,0,15.3,0,22.9
		C375,381.1,370,391.4,363.7,394.6z"/>
	<path class="st1" d="M429.7,196.5c-1-17.5,0.9-33.1-6.8-46.5c-19-33-66.9-52-163.9-52v1c0,0-1.1,0-1.1,0c0,0,1.1,0,1.1,0v-1
		c-94,0-146,19.3-165,52.3c-7.7,13.4-6.6,28.9-7.6,46.4c-0.8,13.9-7,29-4.5,45c3.3,20.8,4.6,41.5,7.8,60.8
		c2.5,15.7,23.6,28.7,25.6,43.7c5.5,40.8,46.7,59.5,143.7,59.5v0.4h-1.3h0.5h0.8v-0.4c98,0,137.1-18.7,142.6-59.5
		c2-15,22.2-28,24.8-43.7c3.1-19.3,4.4-40,7.7-60.8C436.6,225.5,430.5,210.4,429.7,196.5z"/>
	<path class="st2" d="M363.7,414.9c-68.5,25.3-143.8,25.3-212.4,0c-6.3-2.3-11.3-9.7-11.3-16.2c0-5.5,0-11,0-16.5
		c0-6.5,5.1-9.6,11.3-7.3c68.5,25.3,143.8,25.3,212.4,0c6.3-2.3,11.3,0.8,11.3,7.3c0,5.5,0,11,0,16.5
		C375,405.1,370,412.5,363.7,414.9z"/>
	<circle class="st0" cx="257.5" cy="423.4" r="9.7"/>
	<path class="st3" d="M257.9,210c17.4,0.2,29.4,11.7,40.7,21.7c13.1,11.6,35.9,19.8,45.1,29.7c9.2,9.9,21.2,20.3,25.7,35.9
		c4.5,15.6,5.8,35.7,5.8,40.8c0,5.2,3,4,10.9,0c18.7-9.4,39.7-34,39.7-34c-2.5,15.7-22.7,28.5-24.7,43.5
		c-5.5,40.8-45.2,59.3-143.1,59.3h-0.4h-0.2h1.5"/>
	<path class="st3" d="M321.4,179.6c3.8,12.5,16.3,54.6-8.3,40.3c0,0,10.2,6,16.9,28.7c6.6,22.6,23.3,25.5,23.3,25.5
		s26.8,5.1,46.7-11.8c17-14.4,19.7-40.1,12.5-59.5s-20.1-25.4-39-29.4C354.7,169.4,317.3,165.8,321.4,179.6z"/>
	<g>
		<circle cx="369.1" cy="225.4" r="35.2"/>
		<circle class="st4" cx="360.1" cy="209.7" r="9"/>
	</g>
	<path class="st1" d="M315.7,223.7c0,0,31.8,21.4,49,42.8c17.2,21.4,16.9,25.4,16.9,25.4l-12.2,5.4c0,0-17.5-33.1-39.3-45.7
		c-21.8-12.5-24.5-23-24.5-23L315.7,223.7z"/>
	<g>
		<circle class="st5" cx="257.5" cy="422" r="8.3"/>
		<circle class="st6" cx="260" cy="424.9" r="2.9"/>
	</g>
	<g>
		<circle class="st5" cx="257.5" cy="434.9" r="5.6"/>
		<circle class="st6" cx="259.2" cy="436.8" r="2"/>
	</g>
	<path class="st3" d="M259,210c-17.4,0.2-29.9,11.7-41.2,21.7c-13.1,11.6-36.2,19.8-45.4,29.7c-9.2,9.9-21.4,20.3-25.9,35.9
		c-4.5,15.6-5.9,35.7-5.9,40.8c0,5.2,0.9,5.6-10.9,0c-18.9-8.9-39.8-34-39.8-34c2.5,15.7,22.7,28.5,24.7,43.5
		c5.5,40.8,45.2,59.3,143,59.3h0.4h0.2h0.7"/>
	<path class="st7" d="M352.5,278.6c-19.3-23.8-50.1-45.6-92.7-45.6h-0.3h-0.1c-42.6,0-73.4,21.8-92.7,45.6
		c-19.9,24.2-18.6,34-18.6,57.3c0,84.1,29.5,59.2,49.2,69.3c20.1,9.9,40.6,5.9,62.1,5.9h0.1h0.3c21.5,0,42,3.7,62.1-6.2
		c19.7-10.1,49.2,15.3,49.2-68.8C371.1,312.8,372.4,302.8,352.5,278.6z"/>
	<path class="st8" d="M257.6,253.6c0,0-2.7,38.6-8.5,46.2l10.4-2.5L257.6,253.6z"/>
	<path class="st8" d="M260.3,253.6c0,0,2.7,38.6,8.5,46.2l-10.4-2.5L260.3,253.6z"/>
	<path class="st7" d="M226.8,244.6c-4.1-9.2,10.2-24.2,33.1-24.2c22.8,0,37.2,15,33.1,24.2c-4,9.4-18.6,12.5-33.1,12.7
		C245.4,257.1,230.9,254.1,226.8,244.6z"/>
	<path d="M260.2,253.6c-0.1-1.7,13.7-1.9,20.8-6.8c0,0-14.9,4.7-18.1,2.9c-3.3-1.8-3.9-6.5-4.2-6.5s-1,5-3.7,6.5
		c-2.7,1.5-19.6-2.9-19.6-2.9s22.4,5.4,22.3,6.7c-0.2,1.3-0.2,5.1-0.2,7.9c0,10,0.2,34.9,1.5,36.8c2.5,3.7,1.5-26.8,1.5-36.8
		C260.4,258.7,260.3,255.3,260.2,253.6z"/>
	<path class="st9" d="M260.6,307.5c6.8,0,18.8,4.6,29.5,12.3c-10.5-11.4-22.8-19.6-29.5-19.6c-7.2,0-22.3,8.9-33.4,21.6
		C238.9,312.8,253.2,307.5,260.6,307.5z"/>
	<path class="st8" d="M258.1,378c-15.3,0-30-4.8-43.5-8.3c-2.9-0.8-5.8,1.3-8.6,0.4c-25.1-8-45.6-21.7-58.1-38.7
		c0,1.3,0.1,2.7,0.1,4.1c0,84.1,29.5,59.3,49.2,69.5c20.1,9.9,40.6,6,62.1,6h0.1h0.3c21.5,0,42,3.7,62.1-6.2
		c19.7-10.1,49.2,15,49.2-69.1c0-3.2,0.1-6.2,0.3-9c-11.7,18.6-32.8,33.8-59.3,42.7c-2.5,0.8-7.9-1.3-10.5-0.5
		C287.3,372.8,274.5,378,258.1,378z"/>
	<path class="st8" d="M219.9,332.9c0,0-10.1,30-3.2,43.2l-9.2-4.1C207.5,372,214.6,341.7,219.9,332.9z"/>
	<path class="st8" d="M299.3,332.9c0,0,10.1,30,3.2,43.2l9.2-4.1C311.7,372,304.6,341.7,299.3,332.9z"/>
	<path class="st3" d="M194.4,179.6c-3.8,12.5-16.3,54.6,8.3,40.3c0,0-10.2,6-16.9,28.7s-23.3,25.5-23.3,25.5s-26.8,5.1-46.7-11.8
		c-17-14.4-19.7-40.1-12.5-59.5s20.1-25.4,39-29.4C161.1,169.4,198.6,165.8,194.4,179.6z"/>
	<path d="M259.6,300.2c10.6,0,44.3,23.1,44.9,51.8c0-0.5,0.1-1,0.1-1.4c0-29.4-27.3-53.2-45-53.2c-17.7,0-45,23.8-45,53.2
		c0,0.5,0.1,1,0.1,1.4C215.3,323.2,248.9,300.2,259.6,300.2z"/>
	<g>
		
			<ellipse transform="matrix(0.9683 -0.2497 0.2497 0.9683 -51.1689 74.2008)" class="st10" cx="266.9" cy="238.8" rx="3.3" ry="6.2"/>
		
			<ellipse transform="matrix(0.9551 0.2963 -0.2963 0.9551 81.9493 -63.1999)" class="st10" cx="249.5" cy="238.8" rx="3.3" ry="6.2"/>
	</g>
	<g>
		<circle cx="148.8" cy="225.4" r="35.2"/>
		<circle class="st4" cx="157.8" cy="209.7" r="9"/>
	</g>
	<g>
		<path class="st9" d="M270.1,225.7c0-0.3-9.1,4-11.7,4.3c-2.6-0.4-11.7-4.6-11.7-4.3c0-0.2,7.6-0.1,11.7,0.1
			C262.5,225.6,270.2,225.6,270.1,225.7z"/>
	</g>
	<path class="st1" d="M200.2,223.7c0,0-31.8,21.4-49,42.8c-17.2,21.4-16.9,25.4-16.9,25.4l12.2,5.4c0,0,17.5-33.1,39.3-45.7
		s24.5-23,24.5-23L200.2,223.7z"/>
	<path class="st3" d="M130.9,159.8c0,0-10.6,29.5-34.8,42C96.2,201.8,133.5,197.4,130.9,159.8z"/>
	<path class="st3" d="M383.1,159.8c0,0,10.6,29.5,34.8,42C417.9,201.8,380.5,197.4,383.1,159.8z"/>
	<path class="st3" d="M314.2,215.1c0,0-23.3-24.9-55.1-25.5l0-0.1c-0.2,0,0.2,0,0,0c-0.2,0,0,0,0,0v0.1c-31,0.6-55.2,25.5-55.2,25.5
		c27.5-19.3,53.2-18.8,55.2-18.7v0c0,0-0.1,0,0,0c0.1,0,0,0,0,0v0C262,196.2,286.7,195.8,314.2,215.1z"/>
	<path class="st3" d="M286.6,162.9c0,0-11.7-16.9-27.6-17.3l0,0c-0.1,0,0.1,0,0,0c-0.1,0,0,0,0,0v0c-14,0.4-27.6,17.3-27.6,17.3
		c13.8-13.1,27.6-12.8,27.6-12.7v0c0,0,0,0,0,0c0,0,0,0,0,0v0C262,150.1,272.8,149.8,286.6,162.9z"/>
	<path class="st3" d="M148.7,285.9c0,0-18.9,9.3-32.3,3.7l0.1,0c0,0,0.3,0,0.2,0c-0.1,0,0.3,0,0.3,0v0c-14-6.9-18.4-27.1-18.4-27.1
		S109.9,298,148.7,285.9z"/>
	<path class="st3" d="M368,285.9c0,0,18.9,9.3,32.3,3.7l-0.1,0c0,0,0.9,0,1,0c0.1,0,0.8,0,0.8,0v0c14-6.9,17.2-27.1,17.2-27.1
		S406.8,298,368,285.9z"/>
	<path class="st3" d="M258.9,175.3C258.9,175.3,259,175.3,258.9,175.3C258.8,175.3,258.9,175.3,258.9,175.3z"/>
	<g>
		<path class="st3" d="M170.4,157.6c10.5-2.2,27.5-2.6,41.1,2.2c17.3,6,3.4,28,6.9,29.2c3.5,1.2,8.2-15.2,40.4-13.7
			c32.2,1.5,36.1,15.8,40.5,13.7s-4.3-40.2,44.1-31.4c0,0-50.8-13.6-48.4,23.2c0,0-29-22.6-70-2.3
			C225.1,178.5,235.7,144.2,170.4,157.6z"/>
	</g>
	<path class="st3" d="M347.7,157.7c0.6,0.1,1.2,0.3,1.8,0.4C349.5,158.1,348.9,157.9,347.7,157.7z"/>
	<path class="st3" d="M347.4,157.6c0.1,0,0.2,0,0.3,0.1C347.6,157.6,347.5,157.6,347.4,157.6z"/>
	<path class="st3" d="M156.5,108.6c0,0-43.2,54.3-49.7,75.3S95.7,291.8,90,304.1l-20.2-85.4l36.9-89.2L156.5,108.6z"/>
	<path class="st3" d="M359.6,108.6c0,0,43.2,54.3,49.7,75.3c6.5,21,11.1,107.9,16.8,120.2l20.2-85.4l-36.9-89.2L359.6,108.6z"/>
	<path class="st7" d="M357.5,108.6c0,0,46.4,38.8,59.8,83.6s7.9,99.2,18.4,106.2c14.8,9.8,31.6-47.4,37.2-53.6
		c8.7-9.5,38.1-34,40-38.4c1.9-4.4-59.2-71.1-86.1-84.3C394.9,106.5,354.9,105.1,357.5,108.6z"/>
	<path class="st8" d="M397.2,132.5c0,0,54.8,70,53.8,157.1l21.9-44.8C472.9,244.8,453.7,187.5,397.2,132.5z"/>
	<path class="st7" d="M156.5,108.6c0,0-46.4,38.8-59.8,83.6s-7.9,99.2-18.4,106.2c-14.8,9.8-31.6-47.4-37.2-53.6
		c-8.7-9.5-38.1-34-40-38.4c-1.9-4.4,59.2-71.1,86.1-84.3C119.1,106.5,159.1,105.1,156.5,108.6z"/>
	<path class="st8" d="M116.8,132.5c0,0-54.8,70-53.8,157.1l-21.9-44.8C41.1,244.8,60.3,187.5,116.8,132.5z"/>
	<path class="st3" d="M87,291.4c0,0,3.8,21.7,10.5,28.5s2.1-5.2,2.1-5.2s-6.6-3.6-5.5-31.3C95.2,255.6,87,291.4,87,291.4z"/>
	<path class="st3" d="M428.6,291.4c0,0-3.8,21.7-10.5,28.5s-2.1-5.2-2.1-5.2s6.6-3.6,5.5-31.3S428.6,291.4,428.6,291.4z"/>
	<g>
		<path class="st6" d="M283.8,457.1c3.1-1.6,5.4-4.5,6.1-8.1c1.1-6.2-3-12.1-9.2-13.2c-5.7-1-11.1,2.4-12.8,7.8
			c-7.5-2.2-15.3-3.5-23.1-4.1c0.3-5.6-3.6-10.7-9.3-11.8c-6.2-1.1-12.1,3-13.2,9.2c-0.7,3.7,0.5,7.2,2.9,9.7
			c-3.1,1.6-5.4,4.5-6.1,8.1c-1.1,6.2,3,12.1,9.2,13.2c5.6,1,10.9-2.3,12.7-7.4c7.6,2.1,15.4,3.5,23.2,4.1
			c-0.1,5.5,3.8,10.4,9.3,11.4c6.2,1.1,12.1-3,13.2-9.2C287.3,463.2,286.1,459.7,283.8,457.1z"/>
		<path class="st5" d="M275.5,477.4c-0.7,0-1.5-0.1-2.2-0.2c-5.7-1-9.9-5.8-10.3-11.5c-7.2-0.7-14.4-2-21.4-3.8
			c-2.3,5.2-7.9,8.2-13.6,7.2c-6.8-1.2-11.3-7.7-10.1-14.5c0.6-3.4,2.6-6.4,5.5-8.2c-2.1-2.8-2.9-6.2-2.3-9.6
			c0.6-3.3,2.4-6.1,5.2-8.1c2.7-1.9,6.1-2.6,9.3-2c5.8,1,10.1,6,10.3,11.8c7.2,0.6,14.3,1.9,21.2,3.8c2.2-5.4,7.9-8.6,13.7-7.5
			c3.3,0.6,6.1,2.4,8.1,5.2c1.9,2.7,2.6,6.1,2.1,9.3c-0.6,3.4-2.6,6.4-5.5,8.2c2.1,2.8,2.9,6.2,2.3,9.6c-0.6,3.3-2.4,6.1-5.2,8.1
			C280.5,476.6,278.1,477.4,275.5,477.4z M240.2,459.1l1,0.3c7.5,2.1,15.2,3.4,23,4.1l1.1,0.1l0,1.1c-0.1,5,3.4,9.3,8.4,10.2
			c2.7,0.5,5.4-0.1,7.6-1.7s3.7-3.9,4.2-6.6c0.6-3.2-0.4-6.4-2.6-8.7l-1.1-1.1l1.4-0.7c2.9-1.5,4.9-4.1,5.5-7.3
			c0.5-2.7-0.1-5.4-1.7-7.6c-1.6-2.2-3.9-3.7-6.6-4.2c-5-0.9-10,2.1-11.5,7l-0.3,1.1l-1.1-0.3c-7.4-2.1-15.1-3.5-22.8-4.1l-1.1-0.1
			l0.1-1.1c0.3-5.1-3.3-9.7-8.4-10.6c-2.7-0.5-5.4,0.1-7.6,1.7c-2.2,1.6-3.7,3.9-4.2,6.6c-0.6,3.2,0.4,6.4,2.6,8.7l1.1,1.1l-1.4,0.7
			c-2.9,1.5-4.9,4.1-5.5,7.3c-1,5.5,2.7,10.8,8.2,11.8c4.9,0.9,9.7-1.9,11.4-6.7L240.2,459.1z"/>
		<circle class="st11" cx="236" cy="435.9" r="4.3"/>
		<circle class="st11" cx="277.8" cy="466.9" r="4.3"/>
	</g>
	<circle class="st5" cx="254.5" cy="451.9" r="2.6"/>
	<circle class="st5" cx="234" cy="448.8" r="2.6"/>
	<circle class="st5" cx="275" cy="456" r="2.6"/>
	<g>
		<circle class="st8" cx="218.1" cy="274.8" r="3.1"/>
		<circle class="st8" cx="199.7" cy="294.3" r="3.1"/>
		<circle class="st8" cx="193.5" cy="274.8" r="3.1"/>
	</g>
	<g>
		<circle class="st8" cx="295.9" cy="274.8" r="3.1"/>
		<circle class="st8" cx="314.3" cy="294.3" r="3.1"/>
		<circle class="st8" cx="320.5" cy="274.8" r="3.1"/>
	</g>
</g>
</svg>
